<svg xmlns="http://www.w3.org/2000/svg" viewBox="0 0 100 100" id="about-icon" class="menu-icon">
  <path class="bg-target" d="M50 0A50 50 0 0 0 0 50a50 50 0 0 0 50 50 50 50 0 0 0 50-50A50 50 0 0 0 50 0zm-.626 17.762c1.172 0 2.284.222 3.334.667 1.05.403 1.96.97 2.73 1.697.807.687 1.433 1.516 1.878 2.486.485.97.728 2 .728 3.092 0 1.09-.243 2.122-.728 3.092-.445.97-1.07 1.818-1.88 2.546-.767.728-1.677 1.294-2.728 1.698-1.05.405-2.162.607-3.334.607-1.172 0-2.304-.202-3.396-.606-1.05-.403-1.98-.97-2.788-1.697-.768-.728-1.394-1.576-1.88-2.546-.444-.97-.666-2-.666-3.092 0-.97.18-1.92.545-2.85.362-.97.91-1.82 1.636-2.547.728-.768 1.638-1.373 2.73-1.818 1.09-.485 2.363-.728 3.818-.728zm-13.08 21.09h18.922v32.857h8.91v7.516H35.873V71.71h9.756V46.367h-9.334V38.85z"/>
</svg>
