<svg xmlns="http://www.w3.org/2000/svg" viewBox="0 0 100 100" id="blog-icon" class="menu-icon">
  <path class="bg-target" d="M50 0A50 50 0 0 0 0 50a50 50 0 0 0 50 50 50 50 0 0 0 50-50A50 50 0 0 0 50 0zm-7.787 18.852c21.504 0 38.935 17.432 38.935 38.935h-5.84c0-4.47-.875-8.804-2.6-12.88-1.665-3.94-4.052-7.48-7.094-10.52-3.04-3.043-6.58-5.43-10.52-7.096-4.077-1.723-8.41-2.598-12.88-2.598v-5.84zm0 11.68c15.053 0 27.255 12.202 27.255 27.255h-5.84c0-5.72-2.228-11.097-6.273-15.142-4.045-4.044-9.422-6.272-15.142-6.272v-5.84zm1.946 11.68c3.487 0 6.975 1.332 9.636 3.992 2.662 2.662 3.99 6.152 3.988 9.64-3.89 5.84-3.89 13.624-3.89 13.624-15.575 0-27.255 11.68-27.255 11.68l-.853-.85-1.407-1.408 17.252-17.252c.19.028.384.043.58.043 2.152 0 3.895-1.744 3.895-3.894 0-2.15-1.743-3.893-3.894-3.893-2.15 0-3.894 1.743-3.894 3.893 0 .198.014.392.042.58L21.11 75.62l-2.26-2.26s11.682-11.68 11.682-27.254c0 0 7.787 0 13.627-3.893z"/>
</svg>
