<?xml version="1.0" encoding="UTF-8" standalone="no"?>
<!-- Created with Inkscape (http://www.inkscape.org/) -->

<svg
   xmlns:dc="http://purl.org/dc/elements/1.1/"
   xmlns:cc="http://creativecommons.org/ns#"
   xmlns:rdf="http://www.w3.org/1999/02/22-rdf-syntax-ns#"
   xmlns:svg="http://www.w3.org/2000/svg"
   xmlns="http://www.w3.org/2000/svg"
   xmlns:sodipodi="http://sodipodi.sourceforge.net/DTD/sodipodi-0.dtd"
   xmlns:inkscape="http://www.inkscape.org/namespaces/inkscape"
   width="100"
   height="100"
   viewBox="0 0 100 100"
   id="svg7143"
   version="1.1"
   inkscape:version="0.91 r13725"
   sodipodi:docname="blog.svg">
  <defs
     id="defs7145" />
  <sodipodi:namedview
     id="base"
     pagecolor="#ffffff"
     bordercolor="#666666"
     borderopacity="1.0"
     inkscape:pageopacity="0.0"
     inkscape:pageshadow="2"
     inkscape:zoom="5.6799802"
     inkscape:cx="43.537022"
     inkscape:cy="38.471974"
     inkscape:document-units="px"
     inkscape:current-layer="layer1"
     showgrid="false"
     units="px"
     inkscape:window-width="1920"
     inkscape:window-height="1013"
     inkscape:window-x="0"
     inkscape:window-y="24"
     inkscape:window-maximized="1" />
  <metadata
     id="metadata7148">
    <rdf:RDF>
      <cc:Work
         rdf:about="">
        <dc:format>image/svg+xml</dc:format>
        <dc:type
           rdf:resource="http://purl.org/dc/dcmitype/StillImage" />
        <dc:title />
      </cc:Work>
    </rdf:RDF>
  </metadata>
  <g
     inkscape:label="Layer 1"
     inkscape:groupmode="layer"
     id="layer1"
     transform="translate(0,-952.36214)">
    <path
       style="display:inline;opacity:1;fill:#000000;fill-opacity:1;fill-rule:nonzero;stroke:none;stroke-width:40;stroke-linecap:round;stroke-linejoin:round;stroke-miterlimit:4;stroke-dasharray:none;stroke-dashoffset:0;stroke-opacity:1"
       d="M 50.000001,952.36216 A 50,50.000021 0 0 0 1.28e-6,1002.3621 a 50,50.000021 0 0 0 49.99999972,50 50,50.000021 0 0 0 49.999998,-50 50,50.000021 0 0 0 -49.999998,-49.99993 z m -7.786626,18.85237 c 21.503254,0 38.934278,17.43112 38.934278,38.93427 l -5.839398,0 c 0,-4.4703 -0.874759,-8.8038 -2.599036,-12.88 -1.666506,-3.94025 -4.053554,-7.47977 -7.094819,-10.52103 -3.041386,-3.04139 -6.580784,-5.4282 -10.520965,-7.09478 -4.076205,-1.72406 -8.409638,-2.59907 -12.88006,-2.59907 l 0,-5.83938 z m 0,11.67991 c 15.05241,0 27.254338,12.20218 27.254338,27.25436 l -5.840542,0 c 0,-5.72 -2.227591,-11.09676 -6.27235,-15.1414 -4.044639,-4.04464 -9.421446,-6.27241 -15.141446,-6.27241 l 0,-5.84055 z m 1.946084,11.68115 c 3.487591,-1.2e-4 6.975241,1.33012 9.636205,3.99097 2.661988,2.66194 3.990121,6.15124 3.988615,9.63964 -3.891145,5.8401 -3.890964,13.6236 -3.890964,13.6236 -15.574096,0 -27.254337,11.68 -27.254337,11.68 l -0.851807,-0.8507 -1.407229,-1.4072 17.252228,-17.2522 c 0.189579,0.028 0.383675,0.043 0.581205,0.043 2.150301,0 3.893313,-1.7442 3.893313,-3.8944 0,-2.1503 -1.743012,-3.8933 -3.893313,-3.8933 -2.15024,0 -3.894518,1.743 -3.894457,3.8933 0,0.1975 0.01506,0.3919 0.04337,0.5812 l -17.252229,17.2522 -2.259036,-2.2591 c 0,0 11.681084,-11.6802 11.681084,-27.25424 0,0 7.786868,1.8e-4 13.627169,-3.89332 z"
       id="circle5527"
       inkscape:connector-curvature="0" />
  </g>
</svg>
