<svg xmlns="http://www.w3.org/2000/svg" viewBox="0 0 100 100" id="contact-icon" class="menu-icon">
  <path class="bg-target" d="M50 0A50 50 0 0 0 0 50a50 50 0 0 0 50 50 50 50 0 0 0 50-50A50 50 0 0 0 50 0zm2.488 18.364c5.582 0 10.546 1.157 14.892 3.472 4.373 2.315 7.755 5.62 10.147 9.915 2.418 4.27 3.627 9.21 3.627 14.816 0 3.678-.58 7.047-1.737 10.108-1.158 3.035-2.79 5.4-4.9 7.1-2.083 1.697-4.5 2.545-7.252 2.545-2.032 0-3.794-.54-5.286-1.62-1.493-1.08-2.495-2.547-3.01-4.4h-.463c-1.26 2.007-2.816 3.51-4.668 4.514-1.853 1.003-3.936 1.505-6.25 1.505-4.193 0-7.5-1.35-9.917-4.052-2.392-2.7-3.587-6.352-3.587-10.956 0-5.298 1.594-9.594 4.784-12.886 3.19-3.318 7.47-4.977 12.847-4.977 1.954 0 4.115.18 6.48.54 2.393.333 4.515.81 6.367 1.426l-.85 17.94v.926c0 4.115 1.34 6.173 4.014 6.173 2.03 0 3.64-1.312 4.822-3.936 1.21-2.624 1.813-5.967 1.813-10.03 0-4.4-.9-8.257-2.7-11.575-1.8-3.344-4.36-5.916-7.678-7.716-3.318-1.8-7.125-2.702-11.42-2.702-5.478 0-10.25 1.132-14.313 3.395-4.038 2.264-7.124 5.504-9.26 9.722-2.133 4.193-3.2 9.067-3.2 14.623 0 7.46 1.993 13.194 5.98 17.206 3.986 4.013 9.708 6.018 17.167 6.018 5.683 0 11.612-1.157 17.785-3.472v6.328c-5.4 2.212-11.28 3.318-17.632 3.318-9.517 0-16.937-2.56-22.26-7.677-5.325-5.145-7.987-12.31-7.987-21.492 0-6.713 1.44-12.68 4.32-17.9 2.882-5.247 6.868-9.26 11.96-12.038 5.12-2.777 10.907-4.166 17.362-4.166zm-.54 20.91c-3.292 0-5.864 1.093-7.716 3.28-1.826 2.186-2.74 5.157-2.74 8.912 0 5.993 2.354 8.99 7.06 8.99 4.965 0 7.68-3.77 8.142-11.305l.463-9.22c-1.62-.436-3.357-.656-5.21-.656z"/>
</svg>
