<?xml version="1.0" encoding="UTF-8" standalone="no"?>
<!-- Created with Inkscape (http://www.inkscape.org/) -->

<svg
   xmlns:dc="http://purl.org/dc/elements/1.1/"
   xmlns:cc="http://creativecommons.org/ns#"
   xmlns:rdf="http://www.w3.org/1999/02/22-rdf-syntax-ns#"
   xmlns:svg="http://www.w3.org/2000/svg"
   xmlns="http://www.w3.org/2000/svg"
   xmlns:sodipodi="http://sodipodi.sourceforge.net/DTD/sodipodi-0.dtd"
   xmlns:inkscape="http://www.inkscape.org/namespaces/inkscape"
   width="100"
   height="100"
   viewBox="0 0 100 100"
   id="svg7753"
   version="1.1"
   inkscape:version="0.91 r13725"
   sodipodi:docname="contact.svg">
  <defs
     id="defs7755" />
  <sodipodi:namedview
     id="base"
     pagecolor="#ffffff"
     bordercolor="#666666"
     borderopacity="1.0"
     inkscape:pageopacity="0.0"
     inkscape:pageshadow="2"
     inkscape:zoom="2.8284271"
     inkscape:cx="81.163052"
     inkscape:cy="-59.073294"
     inkscape:document-units="px"
     inkscape:current-layer="layer1"
     showgrid="false"
     units="px"
     inkscape:window-width="1920"
     inkscape:window-height="1013"
     inkscape:window-x="0"
     inkscape:window-y="24"
     inkscape:window-maximized="1" />
  <metadata
     id="metadata7758">
    <rdf:RDF>
      <cc:Work
         rdf:about="">
        <dc:format>image/svg+xml</dc:format>
        <dc:type
           rdf:resource="http://purl.org/dc/dcmitype/StillImage" />
        <dc:title></dc:title>
      </cc:Work>
    </rdf:RDF>
  </metadata>
  <g
     inkscape:label="Layer 1"
     inkscape:groupmode="layer"
     id="layer1"
     transform="translate(0,-952.36214)">
    <path
       inkscape:connector-curvature="0"
       style="display:inline;opacity:1;fill:#000000;fill-opacity:1;fill-rule:nonzero;stroke:none;stroke-width:40;stroke-linecap:round;stroke-linejoin:round;stroke-miterlimit:4;stroke-dasharray:none;stroke-dashoffset:0;stroke-opacity:1"
       d="M 50.000002,952.36214 A 50.000001,49.999997 0 0 0 1e-6,1002.3621 a 50.000001,49.999997 0 0 0 50.000001,50 50.000001,49.999997 0 0 0 49.999997,-50 50.000001,49.999997 0 0 0 -49.999997,-49.99996 z m 2.488469,18.36408 c 5.581296,0 10.545266,1.15727 14.891987,3.4721 4.372446,2.31482 7.754855,5.61976 10.146841,9.91506 2.4177,4.26952 3.62622,9.20729 3.62622,14.81434 0,3.67798 -0.57922,7.04728 -1.73663,10.10808 -1.15742,3.0349 -2.79023,5.4018 -4.899286,7.0994 -2.083344,1.6975 -4.50038,2.5461 -7.252446,2.5461 -2.031902,0 -3.794607,-0.5399 -5.286378,-1.6202 -1.491777,-1.0802 -2.494109,-2.5462 -3.008524,-4.398 l -0.463573,0 c -1.260289,2.0062 -2.815638,3.5103 -4.667494,4.5133 -1.851855,1.0032 -3.93518,1.5049 -6.25,1.5049 -4.19241,0 -7.498524,-1.3503 -9.916229,-4.0509 -2.391982,-2.7007 -3.587398,-6.3524 -3.587398,-10.9564 0,-5.29833 1.594669,-9.59369 4.783982,-12.88592 3.189308,-3.31789 7.471555,-4.97692 12.847091,-4.97692 1.954741,0 4.115524,0.18 6.481789,0.54006 2.391982,0.33433 4.51344,0.80993 6.365302,1.42722 l -0.848314,17.94046 0,0.9248 c 0,4.1153 1.337235,6.1735 4.012137,6.1735 2.031904,0 3.639675,-1.3122 4.822808,-3.9356 1.208855,-2.6235 1.813114,-5.9666 1.813114,-10.03039 0,-4.39814 -0.899837,-8.25608 -2.700253,-11.57403 -1.800422,-3.34362 -4.360458,-5.9156 -7.678372,-7.71601 -3.31791,-1.80041 -7.124608,-2.70142 -11.419898,-2.70142 -5.478409,-10e-6 -10.249307,1.13222 -14.313108,3.3956 -4.038085,2.2634 -7.123735,5.504 -9.258519,9.72207 -2.134783,4.19241 -3.202656,9.06699 -3.202656,14.62258 0,7.4588 1.993921,13.194 5.98056,17.2063 3.986645,4.0124 9.708627,6.0182 17.1675,6.0182 5.684175,0 11.613519,-1.1572 17.786378,-3.472 l 0,6.3276 c -5.401251,2.2119 -11.279341,3.318 -17.632245,3.318 -9.5165,0 -16.936826,-2.5589 -22.260916,-7.6773 -5.324097,-5.144 -7.985458,-12.3081 -7.985458,-21.4902 0,-6.71301 1.439735,-12.67926 4.320403,-17.90048 2.880669,-5.24699 6.867338,-9.25984 11.959953,-12.03763 5.118331,-2.77779 10.905849,-4.16628 17.361632,-4.16628 z m -0.540048,20.91024 c -3.292205,0 -5.864169,1.09289 -7.716024,3.27909 -1.826139,2.18621 -2.739078,5.15745 -2.739078,8.91255 0,5.9929 2.35268,8.9891 7.059488,8.9891 4.964012,0 7.677801,-3.7685 8.140765,-11.3045 l 0.463572,-9.21974 c -1.620379,-0.43723 -3.356873,-0.6565 -5.208723,-0.6565 z"
       id="circle4428" />
  </g>
</svg>
