<svg xmlns="http://www.w3.org/2000/svg" viewBox="0 0 100 100" id="email-icon" class="menu-icon">
  <path class="bg-target" d="M50 0A50 50 0 0 0 0 50a50 50 0 0 0 50 50 50 50 0 0 0 50-50A50 50 0 0 0 50 0zM25.713 26.77h48.574c1.43 0 2.667.516 3.712 1.55 1.044 1.034 1.566 2.277 1.566 3.73 0 1.737-.538 3.398-1.616 4.982s-2.42 2.936-4.025 4.058c-8.272 5.742-13.42 9.317-15.444 10.724-.22.155-.687.49-1.402 1.007-.715.52-1.308.937-1.78 1.256-.474.318-1.047.675-1.718 1.072-.67.395-1.303.693-1.896.89-.594.2-1.145.297-1.65.297h-.067c-.506 0-1.056-.098-1.65-.297-.595-.197-1.226-.495-1.897-.89-.672-.396-1.244-.753-1.717-1.072-.473-.32-1.066-.737-1.78-1.255-.716-.515-1.184-.85-1.404-1.006-2.003-1.407-4.884-3.414-8.646-6.02-3.762-2.607-6.018-4.175-6.766-4.703-1.363-.923-2.65-2.194-3.86-3.81-1.21-1.618-1.815-3.12-1.815-4.505 0-1.716.456-3.146 1.37-4.29.912-1.144 2.216-1.715 3.91-1.715zm-5.28 14.98c.968 1.08 2.078 2.036 3.333 2.872 7.963 5.41 13.43 9.207 16.4 11.384 1.254.924 2.27 1.645 3.052 2.162.78.517 1.822 1.045 3.12 1.583 1.297.54 2.507.81 3.63.81h.066c1.122 0 2.33-.27 3.63-.81 1.297-.537 2.337-1.065 3.118-1.582.78-.517 1.798-1.238 3.052-2.162 3.74-2.706 9.217-6.5 16.432-11.384 1.255-.858 2.355-1.815 3.3-2.87v26.2c0 1.452-.516 2.693-1.55 3.728-1.034 1.034-2.277 1.552-3.73 1.552H25.714c-1.452 0-2.696-.518-3.73-1.552-1.034-1.034-1.55-2.276-1.55-3.73v-26.2z"/>
</svg>
