<?xml version="1.0" encoding="UTF-8" standalone="no"?>
<!-- Created with Inkscape (http://www.inkscape.org/) -->

<svg
   xmlns:dc="http://purl.org/dc/elements/1.1/"
   xmlns:cc="http://creativecommons.org/ns#"
   xmlns:rdf="http://www.w3.org/1999/02/22-rdf-syntax-ns#"
   xmlns:svg="http://www.w3.org/2000/svg"
   xmlns="http://www.w3.org/2000/svg"
   xmlns:sodipodi="http://sodipodi.sourceforge.net/DTD/sodipodi-0.dtd"
   xmlns:inkscape="http://www.inkscape.org/namespaces/inkscape"
   width="100"
   height="100"
   viewBox="0 0 100 100"
   id="svg11227"
   version="1.1"
   inkscape:version="0.91 r13725"
   sodipodi:docname="github.svg">
  <defs
     id="defs11229" />
  <sodipodi:namedview
     id="base"
     pagecolor="#ffffff"
     bordercolor="#666666"
     borderopacity="1.0"
     inkscape:pageopacity="0.0"
     inkscape:pageshadow="2"
     inkscape:zoom="8.97"
     inkscape:cx="50"
     inkscape:cy="50"
     inkscape:document-units="px"
     inkscape:current-layer="layer1"
     showgrid="false"
     units="px"
     inkscape:window-width="1920"
     inkscape:window-height="1013"
     inkscape:window-x="0"
     inkscape:window-y="24"
     inkscape:window-maximized="1" />
  <metadata
     id="metadata11232">
    <rdf:RDF>
      <cc:Work
         rdf:about="">
        <dc:format>image/svg+xml</dc:format>
        <dc:type
           rdf:resource="http://purl.org/dc/dcmitype/StillImage" />
        <dc:title></dc:title>
      </cc:Work>
    </rdf:RDF>
  </metadata>
  <g
     inkscape:label="Layer 1"
     inkscape:groupmode="layer"
     id="layer1"
     transform="translate(0,-952.36214)">
    <path
       id="path7183"
       d="M 50.00004,952.36214 C 22.37501,952.36214 0,974.73711 0,1002.3622 c 0,22.1249 14.312512,40.8125 34.187524,47.4375 2.499998,0.4375 3.437508,-1.0625 3.437508,-2.375 0,-1.1875 -0.06258,-5.125 -0.06258,-9.3125 -12.56251,2.3125 -15.812516,-3.0625 -16.812509,-5.875 -0.562507,-1.4375 -3.000008,-5.8751 -5.125001,-7.0626 -1.750002,-0.9374 -4.250012,-3.2499 -0.06257,-3.3125 3.937504,-0.065 6.75001,3.625 7.687507,5.1251 4.500011,7.5624 11.687509,5.4375 14.562523,4.125 0.437501,-3.25 1.750002,-5.4375 3.187497,-6.6875 -11.125016,-1.2501 -22.750015,-5.5625 -22.750015,-24.68748 0,-5.4376 1.937491,-9.93749 5.125001,-13.4375 -0.499997,-1.25006 -2.249999,-6.37504 0.499997,-13.25003 0,0 4.187503,-1.3125 13.750018,5.12498 4.000001,-1.12503 8.250001,-1.68755 12.500013,-1.68755 4.25,0 8.499999,0.56252 12.5,1.68755 9.562516,-6.50006 13.750019,-5.12498 13.750019,-5.12498 2.750009,6.87499 1.000007,11.99997 0.499997,13.25003 3.187509,3.50001 5.125013,7.93745 5.125013,13.4375 0,19.18738 -11.687521,23.43738 -22.812523,24.68748 1.812498,1.5625 3.374998,4.5624 3.374998,9.2499 0,6.6875 -0.06244,12.0625 -0.06244,13.7501 0,1.3125 0.937497,2.8749 3.437508,2.375 C 85.687488,1043.1747 100,1024.4247 100,1002.3622 100,974.73711 77.62499,952.36214 49.99996,952.36214 Z"
       inkscape:connector-curvature="0"
       style="fill:#000000;fill-opacity:1" />
  </g>
</svg>
