<svg xmlns="http://www.w3.org/2000/svg" viewBox="0 0 100 100" id="github-icon" class="menu-icon">
  <path class="bg-target" d="M50 0C22.375 0 0 22.375 0 50c0 22.125 14.313 40.813 34.188 47.438 2.5.437 3.437-1.063 3.437-2.375 0-1.188-.063-5.125-.063-9.313C25 88.063 21.75 82.688 20.75 79.875c-.563-1.437-3-5.875-5.125-7.063-1.75-.937-4.25-3.25-.063-3.312 3.938-.065 6.75 3.625 7.688 5.125 4.5 7.562 11.687 5.438 14.562 4.125.438-3.25 1.75-5.437 3.188-6.687-11.125-1.25-22.75-5.563-22.75-24.688 0-5.438 1.937-9.937 5.125-13.437-.5-1.25-2.25-6.375.5-13.25 0 0 4.187-1.313 13.75 5.125 4-1.125 8.25-1.688 12.5-1.688s8.5.563 12.5 1.688c9.562-6.5 13.75-5.125 13.75-5.125 2.75 6.875 1 12 .5 13.25C80.062 37.438 82 41.875 82 47.375c0 19.187-11.688 23.437-22.813 24.688 1.813 1.562 3.375 4.562 3.375 9.25 0 6.687-.062 12.062-.062 13.75 0 1.312.937 2.874 3.437 2.375C85.687 90.813 100 72.063 100 50c0-27.625-22.375-50-50-50z"/>
</svg>
