<?xml version="1.0" encoding="UTF-8" standalone="no"?>
<!-- Created with Inkscape (http://www.inkscape.org/) -->

<svg
   xmlns:dc="http://purl.org/dc/elements/1.1/"
   xmlns:cc="http://creativecommons.org/ns#"
   xmlns:rdf="http://www.w3.org/1999/02/22-rdf-syntax-ns#"
   xmlns:svg="http://www.w3.org/2000/svg"
   xmlns="http://www.w3.org/2000/svg"
   xmlns:sodipodi="http://sodipodi.sourceforge.net/DTD/sodipodi-0.dtd"
   xmlns:inkscape="http://www.inkscape.org/namespaces/inkscape"
   width="100"
   height="100"
   viewBox="0 0 100 100"
   id="svg10626"
   version="1.1"
   inkscape:version="0.91 r13725"
   sodipodi:docname="instagram.svg">
  <defs
     id="defs10628" />
  <sodipodi:namedview
     id="base"
     pagecolor="#ffffff"
     bordercolor="#666666"
     borderopacity="1.0"
     inkscape:pageopacity="0.0"
     inkscape:pageshadow="2"
     inkscape:zoom="1.9512378"
     inkscape:cx="311.1259"
     inkscape:cy="-9.7653412"
     inkscape:document-units="px"
     inkscape:current-layer="layer1"
     showgrid="false"
     units="px"
     inkscape:window-width="1920"
     inkscape:window-height="1013"
     inkscape:window-x="0"
     inkscape:window-y="24"
     inkscape:window-maximized="1" />
  <metadata
     id="metadata10631">
    <rdf:RDF>
      <cc:Work
         rdf:about="">
        <dc:format>image/svg+xml</dc:format>
        <dc:type
           rdf:resource="http://purl.org/dc/dcmitype/StillImage" />
        <dc:title></dc:title>
      </cc:Work>
    </rdf:RDF>
  </metadata>
  <g
     inkscape:label="Layer 1"
     inkscape:groupmode="layer"
     id="layer1"
     transform="translate(0,-952.36214)">
    <path
       style="opacity:1;fill:#000000;fill-opacity:1;fill-rule:nonzero;stroke:none;stroke-width:3;stroke-linecap:round;stroke-miterlimit:4;stroke-dasharray:none;stroke-dashoffset:0;stroke-opacity:1"
       d="M 50 0 A 50 50 0 0 0 0 50 A 50 50 0 0 0 50 100 A 50 50 0 0 0 100 50 A 50 50 0 0 0 50 0 z M 37.685547 20 L 62.314453 20 C 72.063192 20 80 27.936817 80 37.685547 L 80 62.314453 C 80 72.063353 72.063192 80 62.314453 80 L 37.685547 80 C 27.936808 80 20 72.063353 20 62.314453 L 20 37.685547 C 20 27.936817 27.936808 20 37.685547 20 z M 37.685547 25.695312 C 30.993478 25.695312 25.695312 30.993477 25.695312 37.685547 L 25.695312 62.314453 C 25.695313 69.006553 30.993478 74.304688 37.685547 74.304688 L 62.314453 74.304688 C 69.006523 74.304688 74.304688 69.006553 74.304688 62.314453 L 74.304688 37.685547 C 74.304688 30.993477 69.006523 25.695312 62.314453 25.695312 L 37.685547 25.695312 z M 66.037109 30.427734 A 3.6100946 3.6100948 0 0 1 69.646484 34.039062 A 3.6100946 3.6100948 0 0 1 66.037109 37.648438 A 3.6100946 3.6100948 0 0 1 62.427734 34.039062 A 3.6100946 3.6100948 0 0 1 66.037109 30.427734 z M 50.115234 34.439453 C 58.653713 34.439453 65.63671 41.422457 65.636719 49.960938 C 65.636731 58.499437 58.65373 65.482422 50.115234 65.482422 C 41.57674 65.482422 34.593741 58.499437 34.59375 49.960938 C 34.593759 41.422458 41.576753 34.439453 50.115234 34.439453 z M 50.115234 40.134766 C 44.654706 40.134766 40.289068 44.500408 40.289062 49.960938 C 40.289058 55.421438 44.654697 59.787109 50.115234 59.787109 C 55.575775 59.787109 59.941412 55.421438 59.941406 49.960938 C 59.9414 44.500407 55.575762 40.134766 50.115234 40.134766 z "
       transform="translate(0,952.36214)"
       id="path7653" />
  </g>
</svg>
