<svg xmlns="http://www.w3.org/2000/svg" viewBox="0 0 100 100" id="instagram-icon" class="menu-icon">
  <path class="bg-target" d="M50 0A50 50 0 0 0 0 50a50 50 0 0 0 50 50 50 50 0 0 0 50-50A50 50 0 0 0 50 0zM37.686 20h24.628C72.064 20 80 27.937 80 37.686v24.628C80 72.064 72.063 80 62.314 80H37.686C27.936 80 20 72.063 20 62.314V37.686C20 27.936 27.937 20 37.686 20zm0 5.695c-6.693 0-12 5.298-12 12v24.63c0 6.692 5.297 12 12 12h24.628c6.693 0 12-5.298 12-12v-24.63c0-6.692-5.297-12-12-12H37.686zm28.35 4.733a3.61 3.61 0 0 1 3.61 3.61 3.61 3.61 0 0 1-3.61 3.61 3.61 3.61 0 0 1-3.608-3.61 3.61 3.61 0 0 1 3.61-3.61zm-15.92 4.01c8.538 0 15.52 6.984 15.52 15.523 0 8.54-6.982 15.522-15.52 15.522-8.54 0-15.522-6.983-15.522-15.52 0-8.54 6.983-15.523 15.52-15.523zm0 5.697c-5.46 0-9.827 4.365-9.827 9.826 0 5.46 4.365 9.827 9.825 9.827 5.46 0 9.826-4.366 9.826-9.826 0-5.46-4.364-9.825-9.825-9.825z"/>
</svg>