<svg xmlns="http://www.w3.org/2000/svg" viewBox="0 0 100 100" id="linkedin-icon" class="menu-icon">
  <path class="bg-target" d="M50 0C22.387 0 0 22.387 0 50s22.387 50 50 50 50-22.387 50-50c0-27.62-22.387-50-50-50zM37.5 74.22H25V30.47h12.5v43.75zm-5.863-46.433c-3.237 0-5.856-2.625-5.856-5.862 0-3.238 2.626-5.863 5.857-5.863 3.238.007 5.863 2.632 5.863 5.863 0 3.237-2.625 5.862-5.863 5.862zM81.25 74.22h-12.5V47.17c0-3.17-.906-5.39-4.8-5.39-6.456 0-7.7 5.39-7.7 5.39v27.05h-12.5V30.47h12.5v4.18c1.787-1.37 6.25-4.175 12.5-4.175 4.05 0 12.5 2.425 12.5 17.075v26.67z"/>
</svg>
