<?xml version="1.0" encoding="UTF-8" standalone="no"?>
<!-- Created with Inkscape (http://www.inkscape.org/) -->

<svg
   xmlns:dc="http://purl.org/dc/elements/1.1/"
   xmlns:cc="http://creativecommons.org/ns#"
   xmlns:rdf="http://www.w3.org/1999/02/22-rdf-syntax-ns#"
   xmlns:svg="http://www.w3.org/2000/svg"
   xmlns="http://www.w3.org/2000/svg"
   xmlns:sodipodi="http://sodipodi.sourceforge.net/DTD/sodipodi-0.dtd"
   xmlns:inkscape="http://www.inkscape.org/namespaces/inkscape"
   width="100"
   height="100"
   viewBox="0 0 100 100"
   id="svg6889"
   version="1.1"
   inkscape:version="0.91 r13725"
   sodipodi:docname="logo-inkscape.svg">
  <defs
     id="defs6891" />
  <sodipodi:namedview
     id="base"
     pagecolor="#ffffff"
     bordercolor="#666666"
     borderopacity="1.0"
     inkscape:pageopacity="0.0"
     inkscape:pageshadow="2"
     inkscape:zoom="1"
     inkscape:cx="50"
     inkscape:cy="49.90918"
     inkscape:document-units="px"
     inkscape:current-layer="layer2"
     showgrid="false"
     units="px"
     showguides="false"
     inkscape:window-width="1920"
     inkscape:window-height="1013"
     inkscape:window-x="0"
     inkscape:window-y="24"
     inkscape:window-maximized="1"
     fit-margin-top="0"
     fit-margin-left="0"
     fit-margin-right="0"
     fit-margin-bottom="0">
    <inkscape:grid
       type="xygrid"
       id="grid7437"
       originx="0"
       originy="-1.8417969e-05" />
  </sodipodi:namedview>
  <metadata
     id="metadata6894">
    <rdf:RDF>
      <cc:Work
         rdf:about="">
        <dc:format>image/svg+xml</dc:format>
        <dc:type
           rdf:resource="http://purl.org/dc/dcmitype/StillImage" />
        <dc:title></dc:title>
      </cc:Work>
    </rdf:RDF>
  </metadata>
  <g
     inkscape:label="bg"
     inkscape:groupmode="layer"
     id="layer1"
     transform="translate(0,-952.36212)" />
  <g
     inkscape:groupmode="layer"
     id="layer2"
     inkscape:label="drawing"
     style="opacity:1"
     transform="translate(0,1.8417969e-5)">
    <path
       style="opacity:1;fill:#000000;fill-opacity:1;fill-rule:nonzero;stroke:none;stroke-width:5;stroke-linecap:round;stroke-miterlimit:4;stroke-dasharray:none;stroke-dashoffset:0;stroke-opacity:1"
       d="M 46 0.18164062 A 50 50 0 0 0 0 50 A 50 50 0 0 0 50 100 A 50 50 0 0 0 69 96.207031 L 69 49 L 60 49 L 60 78 C 60.279229 84.224004 52.790104 87.656042 48 83 L 12 47 C 6.5165082 41 12 35 16 35 L 46 35 L 46 0.18164062 z M 60 1.0136719 L 60 35 L 76 35 C 79.892569 35.0959 82.691729 38.225703 83 42 L 83 87.480469 A 50 50 0 0 0 100 50 A 50 50 0 0 0 60 1.0136719 z M 34 49 L 46 61 L 46 49 L 34 49 z "
       transform="translate(0,-1.8417969e-5)"
       id="path7439" />
  </g>
</svg>
