<?xml version="1.0" encoding="UTF-8" standalone="no"?>
<svg
   xmlns:dc="http://purl.org/dc/elements/1.1/"
   xmlns:cc="http://creativecommons.org/ns#"
   xmlns:rdf="http://www.w3.org/1999/02/22-rdf-syntax-ns#"
   xmlns:svg="http://www.w3.org/2000/svg"
   xmlns="http://www.w3.org/2000/svg"
   xmlns:sodipodi="http://sodipodi.sourceforge.net/DTD/sodipodi-0.dtd"
   xmlns:inkscape="http://www.inkscape.org/namespaces/inkscape"
   viewBox="0 0 512 512"
   height="512"
   width="512"
   xml:space="preserve"
   version="1.1"
   id="svg3355"
   inkscape:version="0.91 r13725"
   sodipodi:docname="nodejs.svg"><sodipodi:namedview
     pagecolor="#ffffff"
     bordercolor="#666666"
     borderopacity="1"
     objecttolerance="10"
     gridtolerance="10"
     guidetolerance="10"
     inkscape:pageopacity="0"
     inkscape:pageshadow="2"
     inkscape:window-width="1920"
     inkscape:window-height="1013"
     id="namedview114"
     showgrid="false"
     inkscape:zoom="2.0078514"
     inkscape:cx="276.48199"
     inkscape:cy="169.32965"
     inkscape:window-x="0"
     inkscape:window-y="24"
     inkscape:window-maximized="1"
     inkscape:current-layer="svg3355" /><metadata
     id="metadata3361"><rdf:RDF><cc:Work
         rdf:about=""><dc:format>image/svg+xml</dc:format><dc:type
           rdf:resource="http://purl.org/dc/dcmitype/StillImage" /><dc:title></dc:title></cc:Work></rdf:RDF></metadata><defs
     id="defs3359"><clipPath
       id="clipPath3369"
       clipPathUnits="userSpaceOnUse"><path
         id="path3371"
         d="M 0,600 600,600 600,0 0,0 0,600 Z"
         inkscape:connector-curvature="0" /></clipPath><linearGradient
       id="linearGradient3413"
       spreadMethod="pad"
       gradientTransform="matrix(-38.064877,-77.652351,-77.652351,38.064877,258.70169,355.28543)"
       gradientUnits="userSpaceOnUse"
       y2="0"
       x2="1"
       y1="0"
       x1="0"><stop
         id="stop3415"
         offset="0"
         style="stop-opacity:1;stop-color:#687e67" /><stop
         id="stop3417"
         offset="0.5288042"
         style="stop-opacity:1;stop-color:#687e67" /><stop
         id="stop3419"
         offset="1"
         style="stop-opacity:1;stop-color:#83a178" /></linearGradient><linearGradient
       id="linearGradient3435"
       spreadMethod="pad"
       gradientTransform="matrix(106.80725,78.914902,78.914902,-106.80725,235.15767,314.64658)"
       gradientUnits="userSpaceOnUse"
       y2="0"
       x2="1"
       y1="0"
       x1="0"><stop
         id="stop3437"
         offset="0"
         style="stop-opacity:1;stop-color:#687e67" /><stop
         id="stop3439"
         offset="0.137556"
         style="stop-opacity:1;stop-color:#687e67" /><stop
         id="stop3441"
         offset="0.69737407"
         style="stop-opacity:1;stop-color:#9bb48f" /><stop
         id="stop3443"
         offset="0.908084"
         style="stop-opacity:1;stop-color:#9bb48f" /><stop
         id="stop3445"
         offset="1"
         style="stop-opacity:1;stop-color:#9bb48f" /></linearGradient><clipPath
       id="clipPath3453"
       clipPathUnits="userSpaceOnUse"><path
         id="path3455"
         d="m 239.032,373.393 -42.134,-24.315 c -1.575,-0.909 -2.545,-2.588 -2.545,-4.407 l 0,-48.666 c 0,-1.818 0.97,-3.497 2.544,-4.408 l 42.133,-24.334 c 1.576,-0.909 3.516,-0.909 5.091,0 l 42.124,24.334 c 1.574,0.911 2.543,2.59 2.543,4.408 l 0,48.668 c 0,1.817 -0.969,3.496 -2.545,4.405 l -42.123,24.315 c -0.787,0.454 -1.666,0.682 -2.544,0.682 -0.879,0 -1.757,-0.228 -2.544,-0.682"
         inkscape:connector-curvature="0" /></clipPath><linearGradient
       id="linearGradient3469"
       spreadMethod="pad"
       gradientTransform="matrix(97.416992,0,0,-97.416992,192.8623,382.16568)"
       gradientUnits="userSpaceOnUse"
       y2="0"
       x2="1"
       y1="0"
       x1="0"><stop
         id="stop3471"
         offset="0"
         style="stop-opacity:1;stop-color:#9bb48f" /><stop
         id="stop3473"
         offset="0.0919165"
         style="stop-opacity:1;stop-color:#9bb48f" /><stop
         id="stop3475"
         offset="0.30262629"
         style="stop-opacity:1;stop-color:#9bb48f" /><stop
         id="stop3477"
         offset="0.862444"
         style="stop-opacity:1;stop-color:#687e67" /><stop
         id="stop3479"
         offset="1"
         style="stop-opacity:1;stop-color:#687e67" /></linearGradient><linearGradient
       id="linearGradient3495"
       spreadMethod="pad"
       gradientTransform="matrix(97.416992,0,0,-97.416992,192.8623,320.34848)"
       gradientUnits="userSpaceOnUse"
       y2="0"
       x2="1"
       y1="0"
       x1="0"><stop
         id="stop3497"
         offset="0"
         style="stop-opacity:1;stop-color:#9bb48f" /><stop
         id="stop3499"
         offset="0.0919165"
         style="stop-opacity:1;stop-color:#9bb48f" /><stop
         id="stop3501"
         offset="0.30262629"
         style="stop-opacity:1;stop-color:#9bb48f" /><stop
         id="stop3503"
         offset="0.862444"
         style="stop-opacity:1;stop-color:#687e67" /><stop
         id="stop3505"
         offset="1"
         style="stop-opacity:1;stop-color:#687e67" /></linearGradient><clipPath
       id="clipPath3513"
       clipPathUnits="userSpaceOnUse"><path
         id="path3515"
         d="m 239.032,373.393 -42.134,-24.315 c -1.575,-0.909 -2.545,-2.588 -2.545,-4.407 l 0,-48.666 c 0,-1.818 0.97,-3.497 2.544,-4.408 l 42.133,-24.334 c 1.576,-0.909 3.516,-0.909 5.091,0 l 42.124,24.334 c 1.574,0.911 2.543,2.59 2.543,4.408 l 0,48.668 c 0,1.817 -0.969,3.496 -2.545,4.405 l -42.123,24.315 c -0.787,0.454 -1.666,0.682 -2.544,0.682 -0.879,0 -1.757,-0.228 -2.544,-0.682"
         inkscape:connector-curvature="0" /></clipPath><linearGradient
       id="linearGradient3529"
       spreadMethod="pad"
       gradientTransform="matrix(97.416992,0,0,-97.416992,192.8623,292.53787)"
       gradientUnits="userSpaceOnUse"
       y2="0"
       x2="1"
       y1="0"
       x1="0"><stop
         id="stop3531"
         offset="0"
         style="stop-opacity:1;stop-color:#9bb48f" /><stop
         id="stop3533"
         offset="0.0919165"
         style="stop-opacity:1;stop-color:#9bb48f" /><stop
         id="stop3535"
         offset="0.30262629"
         style="stop-opacity:1;stop-color:#9bb48f" /><stop
         id="stop3537"
         offset="0.862444"
         style="stop-opacity:1;stop-color:#687e67" /><stop
         id="stop3539"
         offset="1"
         style="stop-opacity:1;stop-color:#687e67" /></linearGradient><clipPath
       id="clipPath3547"
       clipPathUnits="userSpaceOnUse"><path
         id="path3549"
         d="m 239.032,373.393 -42.134,-24.315 c -1.575,-0.909 -2.545,-2.588 -2.545,-4.407 l 0,-48.666 c 0,-1.818 0.97,-3.497 2.544,-4.408 l 42.133,-24.334 c 1.576,-0.909 3.516,-0.909 5.091,0 l 42.124,24.334 c 1.574,0.911 2.543,2.59 2.543,4.408 l 0,48.668 c 0,1.817 -0.969,3.496 -2.545,4.405 l -42.123,24.315 c -0.787,0.454 -1.666,0.682 -2.544,0.682 -0.879,0 -1.757,-0.228 -2.544,-0.682"
         inkscape:connector-curvature="0" /></clipPath><linearGradient
       id="linearGradient3563"
       spreadMethod="pad"
       gradientTransform="matrix(97.416992,0,0,-97.416992,192.8623,279.9682)"
       gradientUnits="userSpaceOnUse"
       y2="0"
       x2="1"
       y1="0"
       x1="0"><stop
         id="stop3565"
         offset="0"
         style="stop-opacity:1;stop-color:#9bb48f" /><stop
         id="stop3567"
         offset="0.0919165"
         style="stop-opacity:1;stop-color:#9bb48f" /><stop
         id="stop3569"
         offset="0.30262629"
         style="stop-opacity:1;stop-color:#9bb48f" /><stop
         id="stop3571"
         offset="0.862444"
         style="stop-opacity:1;stop-color:#687e67" /><stop
         id="stop3573"
         offset="1"
         style="stop-opacity:1;stop-color:#687e67" /></linearGradient><clipPath
       id="clipPath3581"
       clipPathUnits="userSpaceOnUse"><path
         id="path3583"
         d="m 239.032,373.393 -42.134,-24.315 c -1.575,-0.909 -2.545,-2.588 -2.545,-4.407 l 0,-48.666 c 0,-1.818 0.97,-3.497 2.544,-4.408 l 42.133,-24.334 c 1.576,-0.909 3.516,-0.909 5.091,0 l 42.124,24.334 c 1.574,0.911 2.543,2.59 2.543,4.408 l 0,48.668 c 0,1.817 -0.969,3.496 -2.545,4.405 l -42.123,24.315 c -0.787,0.454 -1.666,0.682 -2.544,0.682 -0.879,0 -1.757,-0.228 -2.544,-0.682"
         inkscape:connector-curvature="0" /></clipPath><linearGradient
       id="linearGradient3597"
       spreadMethod="pad"
       gradientTransform="matrix(-60.080605,-122.56444,-122.56444,60.080605,304.47177,357.58765)"
       gradientUnits="userSpaceOnUse"
       y2="0"
       x2="1"
       y1="0"
       x1="0"><stop
         id="stop3599"
         offset="0"
         style="stop-opacity:1;stop-color:#687e67" /><stop
         id="stop3601"
         offset="0.5288042"
         style="stop-opacity:1;stop-color:#687e67" /><stop
         id="stop3603"
         offset="1"
         style="stop-opacity:1;stop-color:#83a178" /></linearGradient></defs><g
     id="g4422"
     transform="matrix(3.7568009,0,0,3.7572553,-770.8154,-760.42948)"><g
       transform="matrix(1.25,0,0,-1.25,273.30925,338.65931)"
       id="g3373"><path
         inkscape:connector-curvature="0"
         id="path3375"
         style="fill:#689f63;fill-opacity:1;fill-rule:nonzero;stroke:none"
         d="m 0,0 c -1.46,0 -2.912,0.381 -4.19,1.121 l -13.338,7.892 c -1.991,1.114 -1.019,1.509 -0.362,1.738 2.657,0.922 3.195,1.135 6.031,2.743 0.295,0.167 0.687,0.103 0.992,-0.076 L -0.62,7.335 c 0.371,-0.206 0.895,-0.206 1.237,0 l 39.95,23.058 c 0.372,0.212 0.61,0.64 0.61,1.081 l 0,46.104 c 0,0.451 -0.238,0.872 -0.62,1.101 L 0.624,101.717 c -0.369,0.216 -0.859,0.216 -1.231,0 L -40.53,78.672 c -0.388,-0.222 -0.634,-0.657 -0.634,-1.094 l 0,-46.104 c 0,-0.441 0.246,-0.859 0.63,-1.068 l 10.944,-6.323 c 5.938,-2.969 9.574,0.528 9.574,4.041 l 0,45.519 c 0,0.644 0.517,1.151 1.161,1.151 l 5.065,0 c 0.634,0 1.158,-0.507 1.158,-1.151 l 0,-45.519 c 0,-7.925 -4.316,-12.47 -11.829,-12.47 -2.309,0 -4.127,0 -9.202,2.501 l -10.476,6.031 c -2.588,1.496 -4.19,4.293 -4.19,7.288 l 0,46.104 c 0,2.995 1.602,5.792 4.19,7.281 l 39.949,23.085 c 2.528,1.429 5.888,1.429 8.396,0 L 44.153,84.859 c 2.587,-1.496 4.196,-4.286 4.196,-7.281 l 0,-46.104 c 0,-2.995 -1.609,-5.782 -4.196,-7.288 L 4.206,1.121 C 2.929,0.381 1.48,0 0,0" /></g><g
       transform="matrix(1.25,0,0,-1.25,288.7345,298.95581)"
       id="g3377"><path
         inkscape:connector-curvature="0"
         id="path3379"
         style="fill:#689f63;fill-opacity:1;fill-rule:nonzero;stroke:none"
         d="m 0,0 c -17.482,0 -21.144,8.024 -21.144,14.755 0,0.64 0.514,1.151 1.154,1.151 l 5.165,0 c 0.577,0 1.058,-0.415 1.148,-0.978 0.78,-5.258 3.105,-7.912 13.677,-7.912 8.416,0 11.999,1.904 11.999,6.369 0,2.574 -1.016,4.485 -14.095,5.766 -10.931,1.081 -17.692,3.496 -17.692,12.24 0,8.061 6.794,12.868 18.186,12.868 12.798,0 19.131,-4.442 19.933,-13.972 0.03,-0.329 -0.086,-0.644 -0.305,-0.889 -0.219,-0.229 -0.524,-0.369 -0.846,-0.369 l -5.185,0 c -0.537,0 -1.012,0.382 -1.121,0.903 -1.244,5.533 -4.269,7.301 -12.476,7.301 -9.189,0 -10.257,-3.201 -10.257,-5.6 0,-2.906 1.26,-3.751 13.667,-5.393 C 14.085,24.617 19.917,22.319 19.917,13.69 19.917,4.986 12.659,0 0,0" /></g></g></svg>