<svg xmlns="http://www.w3.org/2000/svg" viewBox="0 0 100 100" id="portfolio-icon" class="menu-icon">
  <path class="bg-target" d="M50 0A50 50 0 0 0 0 50a50 50 0 0 0 50 50 50 50 0 0 0 50-50A50 50 0 0 0 50 0zm24.873 14.626L85.496 25.3 59.008 51.66l-3.238 3.238.34.34 3.237-3.24 1.943 1.945-5.325 5.324.82.82 5.326-5.325 1.88 1.88-3.237 3.238.34.34 3.237-3.24 1.88 1.882-5.324 5.324.82.82 5.324-5.324 1.88 1.88-3.238 3.238.34.34 3.237-3.24 1.88 1.88-5.325 5.326.82.82 5.324-5.325 1.88 1.883-3.24 3.238.34.34 3.238-3.238 1.882 1.88-5.326 5.324.82.82 5.326-5.324 1.802 1.804-3.238 3.237.34.34 3.237-3.24 1.805 1.804-10.648 10.65L48.333 62.28 36.39 74.167 25.765 63.492l11.918-11.86-25.426-25.425 10.648-10.65 1.803 1.805-3.24 3.238.34.338 3.238-3.238 1.804 1.804-5.324 5.325.82.82 5.324-5.326 1.88 1.88-3.237 3.238.34.34 3.237-3.24 1.88 1.88-5.325 5.327.82.82 5.325-5.326 1.88 1.88-3.237 3.238.34.34 3.237-3.24 1.88 1.882-5.325 5.324.82.82 5.325-5.324 1.88 1.88-3.238 3.238.34.34 3.237-3.24 1.88 1.88-5.323 5.326.82.82 5.324-5.325 1.882 1.882-3.238 3.238.34.338 3.237-3.236 1.88 1.88-5.324 5.324.82.82 5.326-5.325 1.007 1.007 26.513-26.384zm-52.54 58.41a9.99 13.253 45.14 0 1 2.802 1.778 9.99 13.253 45.14 0 1 1.738 2.723l-7.057 2.5 2.518-7z"/>
  <path d="M75.925 19.953c.588.59.586 1.54-.006 2.13L33.216 64.575c-.59.588-1.54.586-2.13-.01-.588-.592-.586-1.542.007-2.13l42.7-42.492c.592-.588 1.542-.586 2.13.005z" fill="#fff" fill-opacity=".262"/>
  <path d="M25.766 63.492l-3.432 9.544a9.99 13.253 45.14 0 1 2.8 1.778 9.99 13.253 45.14 0 1 1.74 2.723l9.515-3.37-10.624-10.675z" fill="#fff" fill-opacity=".297" fill-rule="evenodd"/>
  <path d="M17.4 24.96c.59-.59 1.638-.49 2.35.22l51.442 51.443c.713.713.81 1.76.22 2.35-.59.59-1.637.493-2.35-.22L17.62 27.31c-.712-.71-.81-1.76-.22-2.35z" fill="#fff" fill-opacity=".262"/>
</svg>
