<?xml version="1.0" encoding="UTF-8" standalone="no"?>
<!-- Created with Inkscape (http://www.inkscape.org/) -->

<svg
   xmlns:dc="http://purl.org/dc/elements/1.1/"
   xmlns:cc="http://creativecommons.org/ns#"
   xmlns:rdf="http://www.w3.org/1999/02/22-rdf-syntax-ns#"
   xmlns:svg="http://www.w3.org/2000/svg"
   xmlns="http://www.w3.org/2000/svg"
   xmlns:sodipodi="http://sodipodi.sourceforge.net/DTD/sodipodi-0.dtd"
   xmlns:inkscape="http://www.inkscape.org/namespaces/inkscape"
   width="100"
   height="100"
   viewBox="0 0 100 100"
   id="svg5842"
   version="1.1"
   inkscape:version="0.91 r13725"
   sodipodi:docname="resume-pdf.svg">
  <defs
     id="defs5844" />
  <sodipodi:namedview
     id="base"
     pagecolor="#ffffff"
     bordercolor="#666666"
     borderopacity="1.0"
     inkscape:pageopacity="0.0"
     inkscape:pageshadow="2"
     inkscape:zoom="6.3427478"
     inkscape:cx="63.064235"
     inkscape:cy="29.524708"
     inkscape:document-units="px"
     inkscape:current-layer="layer1"
     showgrid="false"
     units="px"
     inkscape:window-width="1920"
     inkscape:window-height="1013"
     inkscape:window-x="0"
     inkscape:window-y="24"
     inkscape:window-maximized="1" />
  <metadata
     id="metadata5847">
    <rdf:RDF>
      <cc:Work
         rdf:about="">
        <dc:format>image/svg+xml</dc:format>
        <dc:type
           rdf:resource="http://purl.org/dc/dcmitype/StillImage" />
        <dc:title></dc:title>
      </cc:Work>
    </rdf:RDF>
  </metadata>
  <g
     inkscape:label="Layer 1"
     inkscape:groupmode="layer"
     id="layer1"
     transform="translate(0,-952.36214)">
    <path
       inkscape:connector-curvature="0"
       style="opacity:1;fill:#000000;fill-opacity:1;fill-rule:nonzero;stroke:none;stroke-width:40;stroke-linecap:round;stroke-linejoin:round;stroke-miterlimit:4;stroke-dasharray:none;stroke-dashoffset:0;stroke-opacity:1"
       d="M 50.000001,952.36214 A 50,50 0 0 0 9.1999993e-7,1002.3621 50,50 0 0 0 50.000001,1052.3621 50,50 0 0 0 100,1002.3621 50,50 0 0 0 50.000001,952.36214 Z m -18.587651,21.83734 24.197591,0 0.0072,0.007 0,14.16839 c 0,1.00759 0.811385,1.819 1.819036,1.819 l 14.168373,0 0.0072,0.007 0,38.50483 c 0,1.0076 -0.811385,1.819 -1.818976,1.819 l -38.38012,0 c -1.007591,0 -1.818976,-0.8114 -1.818976,-1.819 l 0,-52.68735 c 0,-1.00759 0.811385,-1.81899 1.818976,-1.81899 z"
       id="circle8761" />
    <path
       style="opacity:1;fill:#000000;fill-opacity:0.13793102;fill-rule:nonzero;stroke:#ff0a73;stroke-width:0;stroke-linecap:round;stroke-linejoin:round;stroke-miterlimit:4;stroke-dasharray:none;stroke-dashoffset:0;stroke-opacity:1"
       d="m 55.616989,974.19948 0,14.17546 c 0,1.00758 0.811386,1.81899 1.818976,1.81899 l 14.175482,0 -15.994458,-15.99445 z"
       id="rect8768"
       inkscape:connector-curvature="0" />
    <rect
       rx="1.21357"
       style="opacity:1;fill:#ffffff;fill-opacity:0.34715026;fill-rule:nonzero;stroke:#ff0a73;stroke-width:0;stroke-linecap:round;stroke-linejoin:round;stroke-miterlimit:4;stroke-dasharray:none;stroke-dashoffset:0;stroke-opacity:1"
       id="rect8781"
       width="18.849083"
       height="2.42714"
       x="34.701427"
       y="980.52081"
       ry="1.21357" />
    <rect
       rx="1.21357"
       style="opacity:1;fill:#ffffff;fill-opacity:0.34715026;fill-rule:nonzero;stroke:#ff0a73;stroke-width:0;stroke-linecap:round;stroke-linejoin:round;stroke-miterlimit:4;stroke-dasharray:none;stroke-dashoffset:0;stroke-opacity:1"
       id="rect8801"
       width="32.16058"
       height="2.42714"
       x="34.701427"
       y="994.44318"
       ry="1.21357" />
    <path
       inkscape:connector-curvature="0"
       style="opacity:1;fill:#ffffff;fill-opacity:0.34715026;fill-rule:nonzero;stroke:#ff0a73;stroke-width:0;stroke-linecap:round;stroke-linejoin:round;stroke-miterlimit:4;stroke-dasharray:none;stroke-dashoffset:0;stroke-opacity:1"
       d="m 35.915121,987.48191 c -0.672289,0 -1.214216,0.54074 -1.214216,1.21306 0,0.67232 0.541927,1.21423 1.214216,1.21423 l 20.547832,0 c -0.508072,-0.32197 -0.845964,-0.88586 -0.845964,-1.53426 l 0,-0.89303 -19.701868,0 z"
       id="rect8803" />
    <rect
       rx="1.21357"
       ry="1.21357"
       y="1015.3267"
       x="62.495808"
       height="2.42714"
       width="4.3661742"
       id="rect8807"
       style="opacity:1;fill:#ffffff;fill-opacity:0.34715026;fill-rule:nonzero;stroke:#ff0a73;stroke-width:0;stroke-linecap:round;stroke-linejoin:round;stroke-miterlimit:4;stroke-dasharray:none;stroke-dashoffset:0;stroke-opacity:1" />
    <rect
       rx="1.21357"
       style="opacity:1;fill:#ffffff;fill-opacity:0.34715026;fill-rule:nonzero;stroke:#ff0a73;stroke-width:0;stroke-linecap:round;stroke-linejoin:round;stroke-miterlimit:4;stroke-dasharray:none;stroke-dashoffset:0;stroke-opacity:1"
       id="rect8809"
       width="4.3661742"
       height="2.42714"
       x="62.495808"
       y="1022.2879"
       ry="1.21357" />
    <rect
       rx="1.21357"
       style="opacity:1;fill:#ffffff;fill-opacity:0.34715026;fill-rule:nonzero;stroke:#ff0a73;stroke-width:0;stroke-linecap:round;stroke-linejoin:round;stroke-miterlimit:4;stroke-dasharray:none;stroke-dashoffset:0;stroke-opacity:1"
       id="rect8811"
       width="4.2654982"
       height="2.42714"
       x="34.701427"
       y="1001.4044"
       ry="1.21357" />
    <rect
       rx="1.21357"
       ry="1.21357"
       y="1008.3655"
       x="34.701427"
       height="2.42714"
       width="4.6362615"
       id="rect8818"
       style="opacity:1;fill:#ffffff;fill-opacity:0.34715026;fill-rule:nonzero;stroke:#ff0a73;stroke-width:0;stroke-linecap:round;stroke-linejoin:round;stroke-miterlimit:4;stroke-dasharray:none;stroke-dashoffset:0;stroke-opacity:1" />
    <rect
       rx="1.21357"
       style="opacity:1;fill:#ffffff;fill-opacity:0.34715026;fill-rule:nonzero;stroke:#ff0a73;stroke-width:0;stroke-linecap:round;stroke-linejoin:round;stroke-miterlimit:4;stroke-dasharray:none;stroke-dashoffset:0;stroke-opacity:1"
       id="rect8820"
       width="4.320941"
       height="2.42714"
       x="34.701427"
       y="1015.3267"
       ry="1.21357" />
    <rect
       rx="1.21357"
       ry="1.21357"
       y="1022.2879"
       x="34.701427"
       height="2.42714"
       width="25.132111"
       id="rect8822"
       style="opacity:1;fill:#ffffff;fill-opacity:0.34715026;fill-rule:nonzero;stroke:#ff0a73;stroke-width:0;stroke-linecap:round;stroke-linejoin:round;stroke-miterlimit:4;stroke-dasharray:none;stroke-dashoffset:0;stroke-opacity:1" />
    <path
       style="opacity:1;fill:#000000;fill-opacity:1;fill-rule:nonzero;stroke:none;stroke-width:1;stroke-linecap:round;stroke-miterlimit:4;stroke-dasharray:none;stroke-dashoffset:0;stroke-opacity:1"
       d="m 44.249099,1001.2518 c -1.830709,0 -3.304687,1.474 -3.304687,3.3047 l 0,9.9141 c 0,1.8307 1.473978,3.3047 3.304687,3.3047 l 29.742188,0 c 1.830709,0 3.304687,-1.474 3.304687,-3.3047 l 0,-9.9141 c 0,-1.8307 -1.473978,-3.3047 -3.304687,-3.3047 l -29.742188,0 z m 3.410156,3.5938 2.6875,0 c 1.166716,0 2.040041,0.2379 2.619141,0.7148 0.583358,0.4769 0.875,1.1792 0.875,2.1074 0,0.9751 -0.318318,1.7227 -0.957031,2.2422 -0.638713,0.5195 -1.549026,0.7793 -2.728516,0.7793 l -0.970703,0 0,3.4942 -1.525391,0 0,-9.3379 z m 8.046876,0 2.886718,0 c 1.486072,0 2.642681,0.3987 3.46875,1.1992 0.826069,0.8005 1.238282,1.9269 1.238282,3.3789 0,1.5414 -0.427328,2.7215 -1.283204,3.5391 -0.855875,0.8132 -2.087709,1.2207 -3.697265,1.2207 l -2.613281,0 0,-9.3379 z m 9.605468,0 5.269532,0 0,1.289 -3.753907,0 0,2.9199 3.517578,0 0,1.295 -3.517578,0 0,3.834 -1.515625,0 0,-9.3379 z m -16.126953,1.2773 0,3.2813 0.8125,0 c 0.783488,0 1.356461,-0.1357 1.722656,-0.4082 0.366196,-0.2726 0.550782,-0.6983 0.550782,-1.2774 0,-0.5365 -0.164315,-0.9372 -0.492188,-1.2012 -0.327873,-0.264 -0.839135,-0.3945 -1.533203,-0.3945 l -1.060547,0 z m 8.048828,0 0,6.7754 1.085938,0 c 2.248269,0 3.371093,-1.1415 3.371093,-3.4238 0,-2.2355 -1.044045,-3.3516 -3.134765,-3.3516 l -1.322266,0 z"
       id="rect4172"
       inkscape:connector-curvature="0" />
  </g>
</svg>
