<svg xmlns="http://www.w3.org/2000/svg" viewBox="0 0 100 100" id="resume-pdf-icon" class="menu-icon">
    <g transform="translate(0 -952.362)">
        <path class="bg-target" d="M50 952.362a50 50 0 0 0-50 50 50 50 0 0 0 50 50 50 50 0 0 0 50-50 50 50 0 0 0-50-50zM31.412 974.2H55.61l.007.006v14.17c0 1.006.812 1.818 1.82 1.818h14.168l.007.007v38.506c0 1.007-.812 1.82-1.82 1.82h-38.38c-1.007 0-1.818-.813-1.818-1.82v-52.688c0-1.007.81-1.82 1.82-1.82z" />
        <path fill-opacity=".138" d="M55.617 974.2v14.175c0 1.008.81 1.82 1.82 1.82H71.61l-15.993-15.996z" />
        <rect width="18.849" height="2.427" x="34.701" y="980.521" fill="#fff" fill-opacity=".347" rx="1.214" ry="1.214" />
        <rect width="32.161" height="2.427" x="34.701" y="994.443" fill="#fff" fill-opacity=".347" rx="1.214" ry="1.214" />
        <path fill="#fff" fill-opacity=".347" d="M35.915 987.482c-.672 0-1.214.54-1.214 1.213 0 .672.543 1.214 1.215 1.214h20.548c-.508-.323-.846-.887-.846-1.535v-.893H35.915z" />
        <rect width="4.366" height="2.427" x="62.496" y="1015.327" fill="#fff" fill-opacity=".347" rx="1.214" ry="1.214" />
        <rect width="4.366" height="2.427" x="62.496" y="1022.288" fill="#fff" fill-opacity=".347" rx="1.214" ry="1.214" />
        <rect width="4.265" height="2.427" x="34.701" y="1001.404" fill="#fff" fill-opacity=".347" rx="1.214" ry="1.214" />
        <rect width="4.636" height="2.427" x="34.701" y="1008.365" fill="#fff" fill-opacity=".347" rx="1.214" ry="1.214" />
        <rect width="4.321" height="2.427" x="34.701" y="1015.327" fill="#fff" fill-opacity=".347" rx="1.214" ry="1.214" />
        <rect width="25.132" height="2.427" x="34.701" y="1022.288" fill="#fff" fill-opacity=".347" rx="1.214" ry="1.214" />
        <path class="bg-target" d="M44.25 1001.252c-1.832 0-3.306 1.474-3.306 3.305v9.914c0 1.83 1.474 3.305 3.305 3.305h29.74c1.832 0 3.306-1.474 3.306-3.304v-9.914c0-1.83-1.474-3.304-3.305-3.304H44.25zm3.41 3.594h2.687c1.166 0 2.04.237 2.62.714.582.477.874 1.18.874 2.108 0 .975-.317 1.722-.956 2.242-.64.52-1.55.78-2.73.78h-.97v3.493H47.66v-9.337zm8.046 0h2.887c1.486 0 2.643.398 3.47 1.2.825.8 1.237 1.926 1.237 3.378 0 1.54-.427 2.72-1.283 3.54-.856.812-2.088 1.22-3.698 1.22h-2.614v-9.338zm9.606 0h5.27v1.29h-3.755v2.92l3.518-.002v1.295h-3.518v3.833h-1.515v-9.337zm-16.127 1.277v3.28h.812c.784 0 1.357-.135 1.723-.407.366-.273.55-.698.55-1.277 0-.538-.164-.94-.492-1.203-.327-.264-.84-.394-1.533-.394h-1.06zm8.048 0v6.775h1.086c2.248 0 3.37-1.14 3.37-3.424 0-2.235-1.044-3.35-3.134-3.35h-1.323z" />
    </g>
</svg>