<?xml version="1.0" encoding="UTF-8" standalone="no"?>
<svg
   xmlns:dc="http://purl.org/dc/elements/1.1/"
   xmlns:cc="http://creativecommons.org/ns#"
   xmlns:rdf="http://www.w3.org/1999/02/22-rdf-syntax-ns#"
   xmlns:svg="http://www.w3.org/2000/svg"
   xmlns="http://www.w3.org/2000/svg"
   xmlns:sodipodi="http://sodipodi.sourceforge.net/DTD/sodipodi-0.dtd"
   xmlns:inkscape="http://www.inkscape.org/namespaces/inkscape"
   viewBox="0 0 512 512"
   height="512"
   width="512"
   xml:space="preserve"
   version="1.1"
   id="svg3355"
   inkscape:version="0.91 r13725"
   sodipodi:docname="sencha-touch.svg"><sodipodi:namedview
     pagecolor="#ffffff"
     bordercolor="#666666"
     borderopacity="1"
     objecttolerance="10"
     gridtolerance="10"
     guidetolerance="10"
     inkscape:pageopacity="0"
     inkscape:pageshadow="2"
     inkscape:window-width="1366"
     inkscape:window-height="701"
     id="namedview114"
     showgrid="false"
     inkscape:zoom="0.5676494"
     inkscape:cx="211.5197"
     inkscape:cy="64.247702"
     inkscape:window-x="1920"
     inkscape:window-y="336"
     inkscape:window-maximized="1"
     inkscape:current-layer="svg3355" /><metadata
     id="metadata3361"><rdf:RDF><cc:Work
         rdf:about=""><dc:format>image/svg+xml</dc:format><dc:type
           rdf:resource="http://purl.org/dc/dcmitype/StillImage" /><dc:title></dc:title></cc:Work></rdf:RDF></metadata><defs
     id="defs3359"><clipPath
       id="clipPath3369"
       clipPathUnits="userSpaceOnUse"><path
         id="path3371"
         d="M 0,600 600,600 600,0 0,0 0,600 Z"
         inkscape:connector-curvature="0" /></clipPath><linearGradient
       id="linearGradient3413"
       spreadMethod="pad"
       gradientTransform="matrix(-38.064877,-77.652351,-77.652351,38.064877,258.70169,355.28543)"
       gradientUnits="userSpaceOnUse"
       y2="0"
       x2="1"
       y1="0"
       x1="0"><stop
         id="stop3415"
         offset="0"
         style="stop-opacity:1;stop-color:#687e67" /><stop
         id="stop3417"
         offset="0.5288042"
         style="stop-opacity:1;stop-color:#687e67" /><stop
         id="stop3419"
         offset="1"
         style="stop-opacity:1;stop-color:#83a178" /></linearGradient><linearGradient
       id="linearGradient3435"
       spreadMethod="pad"
       gradientTransform="matrix(106.80725,78.914902,78.914902,-106.80725,235.15767,314.64658)"
       gradientUnits="userSpaceOnUse"
       y2="0"
       x2="1"
       y1="0"
       x1="0"><stop
         id="stop3437"
         offset="0"
         style="stop-opacity:1;stop-color:#687e67" /><stop
         id="stop3439"
         offset="0.137556"
         style="stop-opacity:1;stop-color:#687e67" /><stop
         id="stop3441"
         offset="0.69737407"
         style="stop-opacity:1;stop-color:#9bb48f" /><stop
         id="stop3443"
         offset="0.908084"
         style="stop-opacity:1;stop-color:#9bb48f" /><stop
         id="stop3445"
         offset="1"
         style="stop-opacity:1;stop-color:#9bb48f" /></linearGradient><clipPath
       id="clipPath3453"
       clipPathUnits="userSpaceOnUse"><path
         id="path3455"
         d="m 239.032,373.393 -42.134,-24.315 c -1.575,-0.909 -2.545,-2.588 -2.545,-4.407 l 0,-48.666 c 0,-1.818 0.97,-3.497 2.544,-4.408 l 42.133,-24.334 c 1.576,-0.909 3.516,-0.909 5.091,0 l 42.124,24.334 c 1.574,0.911 2.543,2.59 2.543,4.408 l 0,48.668 c 0,1.817 -0.969,3.496 -2.545,4.405 l -42.123,24.315 c -0.787,0.454 -1.666,0.682 -2.544,0.682 -0.879,0 -1.757,-0.228 -2.544,-0.682"
         inkscape:connector-curvature="0" /></clipPath><linearGradient
       id="linearGradient3469"
       spreadMethod="pad"
       gradientTransform="matrix(97.416992,0,0,-97.416992,192.8623,382.16568)"
       gradientUnits="userSpaceOnUse"
       y2="0"
       x2="1"
       y1="0"
       x1="0"><stop
         id="stop3471"
         offset="0"
         style="stop-opacity:1;stop-color:#9bb48f" /><stop
         id="stop3473"
         offset="0.0919165"
         style="stop-opacity:1;stop-color:#9bb48f" /><stop
         id="stop3475"
         offset="0.30262629"
         style="stop-opacity:1;stop-color:#9bb48f" /><stop
         id="stop3477"
         offset="0.862444"
         style="stop-opacity:1;stop-color:#687e67" /><stop
         id="stop3479"
         offset="1"
         style="stop-opacity:1;stop-color:#687e67" /></linearGradient><linearGradient
       id="linearGradient3495"
       spreadMethod="pad"
       gradientTransform="matrix(97.416992,0,0,-97.416992,192.8623,320.34848)"
       gradientUnits="userSpaceOnUse"
       y2="0"
       x2="1"
       y1="0"
       x1="0"><stop
         id="stop3497"
         offset="0"
         style="stop-opacity:1;stop-color:#9bb48f" /><stop
         id="stop3499"
         offset="0.0919165"
         style="stop-opacity:1;stop-color:#9bb48f" /><stop
         id="stop3501"
         offset="0.30262629"
         style="stop-opacity:1;stop-color:#9bb48f" /><stop
         id="stop3503"
         offset="0.862444"
         style="stop-opacity:1;stop-color:#687e67" /><stop
         id="stop3505"
         offset="1"
         style="stop-opacity:1;stop-color:#687e67" /></linearGradient><clipPath
       id="clipPath3513"
       clipPathUnits="userSpaceOnUse"><path
         id="path3515"
         d="m 239.032,373.393 -42.134,-24.315 c -1.575,-0.909 -2.545,-2.588 -2.545,-4.407 l 0,-48.666 c 0,-1.818 0.97,-3.497 2.544,-4.408 l 42.133,-24.334 c 1.576,-0.909 3.516,-0.909 5.091,0 l 42.124,24.334 c 1.574,0.911 2.543,2.59 2.543,4.408 l 0,48.668 c 0,1.817 -0.969,3.496 -2.545,4.405 l -42.123,24.315 c -0.787,0.454 -1.666,0.682 -2.544,0.682 -0.879,0 -1.757,-0.228 -2.544,-0.682"
         inkscape:connector-curvature="0" /></clipPath><linearGradient
       id="linearGradient3529"
       spreadMethod="pad"
       gradientTransform="matrix(97.416992,0,0,-97.416992,192.8623,292.53787)"
       gradientUnits="userSpaceOnUse"
       y2="0"
       x2="1"
       y1="0"
       x1="0"><stop
         id="stop3531"
         offset="0"
         style="stop-opacity:1;stop-color:#9bb48f" /><stop
         id="stop3533"
         offset="0.0919165"
         style="stop-opacity:1;stop-color:#9bb48f" /><stop
         id="stop3535"
         offset="0.30262629"
         style="stop-opacity:1;stop-color:#9bb48f" /><stop
         id="stop3537"
         offset="0.862444"
         style="stop-opacity:1;stop-color:#687e67" /><stop
         id="stop3539"
         offset="1"
         style="stop-opacity:1;stop-color:#687e67" /></linearGradient><clipPath
       id="clipPath3547"
       clipPathUnits="userSpaceOnUse"><path
         id="path3549"
         d="m 239.032,373.393 -42.134,-24.315 c -1.575,-0.909 -2.545,-2.588 -2.545,-4.407 l 0,-48.666 c 0,-1.818 0.97,-3.497 2.544,-4.408 l 42.133,-24.334 c 1.576,-0.909 3.516,-0.909 5.091,0 l 42.124,24.334 c 1.574,0.911 2.543,2.59 2.543,4.408 l 0,48.668 c 0,1.817 -0.969,3.496 -2.545,4.405 l -42.123,24.315 c -0.787,0.454 -1.666,0.682 -2.544,0.682 -0.879,0 -1.757,-0.228 -2.544,-0.682"
         inkscape:connector-curvature="0" /></clipPath><linearGradient
       id="linearGradient3563"
       spreadMethod="pad"
       gradientTransform="matrix(97.416992,0,0,-97.416992,192.8623,279.9682)"
       gradientUnits="userSpaceOnUse"
       y2="0"
       x2="1"
       y1="0"
       x1="0"><stop
         id="stop3565"
         offset="0"
         style="stop-opacity:1;stop-color:#9bb48f" /><stop
         id="stop3567"
         offset="0.0919165"
         style="stop-opacity:1;stop-color:#9bb48f" /><stop
         id="stop3569"
         offset="0.30262629"
         style="stop-opacity:1;stop-color:#9bb48f" /><stop
         id="stop3571"
         offset="0.862444"
         style="stop-opacity:1;stop-color:#687e67" /><stop
         id="stop3573"
         offset="1"
         style="stop-opacity:1;stop-color:#687e67" /></linearGradient><clipPath
       id="clipPath3581"
       clipPathUnits="userSpaceOnUse"><path
         id="path3583"
         d="m 239.032,373.393 -42.134,-24.315 c -1.575,-0.909 -2.545,-2.588 -2.545,-4.407 l 0,-48.666 c 0,-1.818 0.97,-3.497 2.544,-4.408 l 42.133,-24.334 c 1.576,-0.909 3.516,-0.909 5.091,0 l 42.124,24.334 c 1.574,0.911 2.543,2.59 2.543,4.408 l 0,48.668 c 0,1.817 -0.969,3.496 -2.545,4.405 l -42.123,24.315 c -0.787,0.454 -1.666,0.682 -2.544,0.682 -0.879,0 -1.757,-0.228 -2.544,-0.682"
         inkscape:connector-curvature="0" /></clipPath><linearGradient
       id="linearGradient3597"
       spreadMethod="pad"
       gradientTransform="matrix(-60.080605,-122.56444,-122.56444,60.080605,304.47177,357.58765)"
       gradientUnits="userSpaceOnUse"
       y2="0"
       x2="1"
       y1="0"
       x1="0"><stop
         id="stop3599"
         offset="0"
         style="stop-opacity:1;stop-color:#687e67" /><stop
         id="stop3601"
         offset="0.5288042"
         style="stop-opacity:1;stop-color:#687e67" /><stop
         id="stop3603"
         offset="1"
         style="stop-opacity:1;stop-color:#83a178" /></linearGradient><linearGradient
       gradientUnits="userSpaceOnUse"
       gradientTransform="scale(0.86284671,1.1589544)"
       x1="17.88204"
       y1="146.67267"
       x2="2.2389282"
       y2="195.84707"
       id="linearGradient-1"><stop
         stop-color="#AACE36"
         offset="0%"
         id="stop7" /><stop
         stop-color="#2FA042"
         offset="100%"
         id="stop9" /></linearGradient><linearGradient
       gradientUnits="userSpaceOnUse"
       gradientTransform="scale(0.79215542,1.2623785)"
       x1="78.896601"
       y1="137.06155"
       x2="322.44916"
       y2="173.8749"
       id="linearGradient-2"><stop
         stop-color="#79A933"
         offset="0%"
         id="stop12" /><stop
         stop-color="#70A333"
         offset="13%"
         id="stop14" /><stop
         stop-color="#559332"
         offset="34%"
         id="stop16" /><stop
         stop-color="#277B2F"
         offset="58%"
         id="stop18" /><stop
         stop-color="#005F27"
         offset="86%"
         id="stop20" /><stop
         stop-color="#005020"
         offset="100%"
         id="stop22" /></linearGradient><linearGradient
       gradientUnits="userSpaceOnUse"
       gradientTransform="scale(1.0840662,0.92245286)"
       x1="81.352723"
       y1="109.52827"
       x2="170.69835"
       y2="285.75411"
       id="linearGradient-3"><stop
         stop-color="#79AB35"
         offset="0%"
         id="stop25" /><stop
         stop-color="#7CBA3D"
         offset="53%"
         id="stop27" /><stop
         stop-color="#00AA4B"
         offset="100%"
         id="stop29" /></linearGradient></defs><g
     id="g31"
     transform="matrix(1.32203,0,0,1.32203,87.157005,-3.1512505e-4)"><path
       style="fill:#7cba3d"
       inkscape:connector-curvature="0"
       d="m 252.87585,231.53541 -0.001,10e-4 c -7.18223,-35.90518 -29.09393,-66.49244 -59.18815,-85.16622 -0.002,-0.001 -0.009,-0.006 -0.0119,-0.007 -0.009,-0.007 -0.0225,-0.0142 -0.0332,-0.0202 -0.008,-0.006 -0.019,-0.013 -0.0296,-0.019 -0.008,-0.005 -0.0119,-0.007 -0.019,-0.0119 -2.784,-1.72326 -5.63911,-3.34697 -8.55704,-4.86163 l -80.63052,-40.416 -0.001,0.002 0.001,-0.002 0.001,-10e-4 -4.33422,-2.173628 c -0.253633,-0.122074 -0.504893,-0.246519 -0.756152,-0.373333 l -0.0012,0 c -0.01778,-0.0095 -0.03437,-0.01778 -0.05215,-0.02608 l -0.0012,-0.0012 c -0.01659,-0.0083 -0.03319,-0.01659 -0.04978,-0.02489 -0.0012,-0.0012 -0.0036,-0.0024 -0.0047,-0.0024 -0.01659,-0.0083 -0.032,-0.01659 -0.04741,-0.0237 -0.0036,-0.0024 -0.0036,-0.0024 -0.0071,-0.0047 -0.01541,-0.0071 -0.02963,-0.01422 -0.04385,-0.02133 -0.0036,-0.0024 -0.0071,-0.0047 -0.01067,-0.0059 -0.01304,-0.0071 -0.02607,-0.01304 -0.03911,-0.02015 -0.0047,-0.0024 -0.0095,-0.0047 -0.01541,-0.0071 -0.01067,-0.0059 -0.02133,-0.01185 -0.032,-0.01659 -0.0071,-0.0036 -0.01541,-0.0083 -0.02133,-0.01185 -0.0071,-0.0036 -0.01541,-0.0071 -0.02252,-0.01067 -0.01185,-0.0059 -0.02133,-0.01067 -0.032,-0.01659 -0.0012,-0.0012 -0.0036,-0.0024 -0.0047,-0.0024 C 90.545778,93.987556 83.401482,87.605333 78.176,79.828148 72.251259,71.008 68.795259,60.392296 68.795259,48.967111 68.795259,27.740444 80.737185,9.3037037 98.268444,0 L 72.242963,13.296593 C 29.41037,34.672593 0,78.919111 0,130.03615 l 1.9318518,22.42844 0.00119,0 c 0,-10e-4 -0.00119,-0.004 -0.00119,-0.005 0.033185,0.009 0.067556,0.0225 0.1007408,0.0332 -0.033185,-0.0107 -0.06637,-0.019 -0.099556,-0.0285 7.0174815,40.49304 32.7040004,74.58252 67.8862224,93.06785 l 0.0036,0.002 c 0.01541,0.007 0.02963,0.0154 0.04504,0.0237 0.0047,0.002 0.0059,0.002 0.01067,0.005 0.01304,0.007 0.02963,0.0178 0.04267,0.0237 0.0047,0.004 0.0071,0.005 0.01304,0.007 0.01422,0.008 0.02607,0.0142 0.04148,0.0213 0.0024,0.002 0.0071,0.005 0.0095,0.006 0.04622,0.0249 0.08889,0.0462 0.133926,0.0711 0.0083,0.004 0.0095,0.005 0.01659,0.008 0.01067,0.006 0.0237,0.0119 0.03437,0.0178 0.0083,0.005 0.01541,0.008 0.0237,0.0142 0.01067,0.005 0.02133,0.0107 0.032,0.0166 0.01067,0.005 0.01541,0.007 0.02489,0.013 0.01067,0.006 0.01896,0.009 0.02963,0.0154 0.01304,0.007 0.02133,0.0118 0.03318,0.0178 0.0071,0.004 0.01541,0.008 0.02252,0.0119 0.01778,0.008 0.03793,0.019 0.05689,0.0296 l 8.085333,4.05333 c -0.0095,-0.0225 -0.01778,-0.0462 -0.02726,-0.0699 0.01067,0.0249 0.02015,0.0474 0.02963,0.0711 l -0.0024,-0.001 c 0.0012,0.001 0.0012,0.001 0.0012,0.002 l 9.620149,4.82015 67.256883,33.71259 c 18.50667,8.97304 31.27704,27.936 31.27704,49.88682 l 0,0.12681 c 0,0.0178 -0.001,0.0367 -0.001,0.0545 l 0,0.19911 c -0.001,0.0166 -0.001,0.0332 -0.001,0.0498 l 0,0.0782 c 0,0.0107 0,0.0225 -0.001,0.0308 l 0,0.096 c 0,0.008 -0.001,0.0178 -0.001,0.0261 l 0,0.0699 c 0,0.0107 -10e-4,0.0225 -10e-4,0.0308 l 0,0.0202 c 0,0.0379 -0.001,0.0747 -0.001,0.11259 l 0,0.009 c -0.22755,14.29689 -5.87378,27.27823 -14.97244,36.98015 -4.1683,4.448 -9.06312,8.20622 -14.49482,11.08741 l 16.7123,-8.53571 9.31437,-4.75377 C 226.01597,352.61129 255.4299,308.3624 255.4299,257.24181 l -2.55289,-25.70785"
       id="path33" /><path
       style="fill:#c5d83e"
       inkscape:connector-curvature="0"
       d="M 0,130.03615 C 0,78.919111 29.41037,34.672593 72.242963,13.296593 L 98.268444,0 C 80.737185,9.3037037 68.795259,27.740444 68.795259,48.967111 c 0,11.425185 3.456,22.040889 9.380741,30.861037 -8.817778,22.069332 -13.94963,44.714672 -15.67763,67.249782 -11.150222,5.63555 -23.730963,8.79763 -36.981333,8.79881 -1.272889,0 -2.549333,-0.0296 -3.834074,-0.0889 -6.848,-0.3117 -13.4625186,-1.45659 -19.7511112,-3.32326 L 0,130.03615 l 0,0 z m 186.63467,208.33185 0,-0.0557 0,0.0557 0,0 z m 0,0.0616 0,-0.0474 0,0.0474 0,0 z m -0.001,0.064 c 0,-0.0178 0.001,-0.0367 0.001,-0.0545 0,0.019 -0.001,0.0356 -0.001,0.0545 l 0,0 z m 0,0.0581 0,-0.0438 0,0.0438 0,0 z m 0,0.0652 0,-0.0533 0,0.0533 0,0 z m 0,0.0569 0,-0.0403 0,0.0403 0,0 z m -0.001,0.0687 c 0,-0.0166 0,-0.0332 0.001,-0.0498 -0.001,0.0154 -0.001,0.0332 -0.001,0.0498 l 0,0 z m 0,0.0521 0,-0.0308 0,0.0308 0,0 z m -10e-4,0.0581 c 10e-4,-0.009 10e-4,-0.0213 10e-4,-0.0308 0,0.009 0,0.0201 -10e-4,0.0308 l 0,0 z m 0,0.0676 0,-0.0273 0,0.0273 0,0 z m -0.001,0.0545 c 0,-0.009 0.001,-0.019 0.001,-0.0261 0,0.008 -0.001,0.0166 -0.001,0.0261 l 0,0 z m 0,0.0699 0,-0.0261 0,0.0261 0,0 z m -0.001,0.051 0,-0.0201 0,0.0201 0,0 z m -0.001,0.12089 0,-0.009 0,0.009 0,0 z"
       id="path35" /><path
       style="fill:url(#linearGradient-1)"
       inkscape:connector-curvature="0"
       d="m 78.480593,249.89156 -8.087704,-4.05452 c -0.01896,-0.0107 -0.03911,-0.0213 -0.05689,-0.0296 -0.0071,-0.004 -0.01541,-0.008 -0.02252,-0.0119 -0.01185,-0.006 -0.02015,-0.0107 -0.03318,-0.0178 -0.01067,-0.006 -0.01896,-0.009 -0.02963,-0.0154 -0.0095,-0.006 -0.01422,-0.008 -0.02489,-0.013 -0.01067,-0.006 -0.02133,-0.0118 -0.032,-0.0166 -0.0083,-0.006 -0.01541,-0.009 -0.0237,-0.0142 -0.01067,-0.006 -0.0237,-0.0119 -0.03437,-0.0178 -0.0071,-0.004 -0.0083,-0.005 -0.01659,-0.008 -0.04504,-0.0249 -0.0877,-0.0462 -0.133926,-0.0711 -0.0024,-0.001 -0.0071,-0.004 -0.0095,-0.006 -0.01541,-0.007 -0.02726,-0.013 -0.04148,-0.0213 -0.0059,-0.002 -0.0083,-0.004 -0.01304,-0.007 -0.01304,-0.006 -0.02963,-0.0166 -0.04267,-0.0237 -0.0047,-0.002 -0.0059,-0.002 -0.01067,-0.005 -0.01541,-0.008 -0.02963,-0.0166 -0.04504,-0.0237 l -0.0036,-0.002 C 34.635852,227.04593 8.9481482,192.95526 1.9318518,152.45985 c 6.2885926,1.86667 12.9031112,3.01156 19.7511112,3.32326 1.284741,0.0593 2.561185,0.0889 3.834074,0.0889 13.25037,-10e-4 25.831111,-3.16326 36.981333,-8.79882 -2.717629,35.44771 2.980741,70.61689 15.982223,102.81838"
       id="path37" /><path
       style="fill:url(#linearGradient-2)"
       inkscape:connector-curvature="0"
       d="m 104.40652,101.03348 -4.33422,-2.173628 c -0.253633,-0.122074 -0.504893,-0.246519 -0.756152,-0.373333 l -0.0012,0 c -0.01778,-0.0095 -0.03437,-0.01778 -0.05215,-0.02608 l -0.0012,-0.0012 c -0.01659,-0.0083 -0.03319,-0.01659 -0.04978,-0.02489 -0.0012,-0.0012 -0.0036,-0.0024 -0.0047,-0.0024 -0.01659,-0.0083 -0.032,-0.01659 -0.04741,-0.0237 -0.0036,-0.0024 -0.0036,-0.0024 -0.0071,-0.0047 -0.01541,-0.0071 -0.02963,-0.01422 -0.04385,-0.02133 -0.0036,-0.0024 -0.0071,-0.0047 -0.01067,-0.0059 -0.01304,-0.0071 -0.02607,-0.01304 -0.03911,-0.02015 -0.0047,-0.0024 -0.0095,-0.0047 -0.01541,-0.0071 -0.01067,-0.0059 -0.02133,-0.01185 -0.032,-0.01659 -0.0071,-0.0036 -0.01541,-0.0083 -0.02133,-0.01185 -0.0071,-0.0036 -0.01541,-0.0071 -0.02252,-0.01067 -0.01185,-0.0059 -0.02133,-0.01067 -0.032,-0.01659 -0.0012,-0.0012 -0.0036,-0.0024 -0.0047,-0.0024 C 90.545778,93.987556 83.401482,87.605333 78.176,79.828148 69.358222,101.89748 64.22637,124.54282 62.49837,147.07793 77.44,139.5283 89.820444,127.54015 97.834667,112.768 l 6.571853,-11.73452 0,0 z m 148.46933,130.50193 c -30.68326,20.29511 -67.37659,32.05926 -106.57659,32.05926 -2.98548,0 -5.98519,-0.0676 -8.99674,-0.20623 -17.10933,-0.78459 -33.59171,-3.78311 -49.202964,-8.67555 l 67.256884,33.71259 c 18.50667,8.97304 31.27704,27.936 31.27704,49.88682 l 0,0.12681 c 0,0.0178 -0.001,0.0367 -0.001,0.0545 l 0,0.19911 c -10e-4,0.0166 -10e-4,0.0332 -10e-4,0.0498 l 0,0.0782 c 0,0.0107 0,0.0225 -0.001,0.0308 l 0,0.096 c 0,0.008 -0.001,0.0178 -0.001,0.0261 l 0,0.0699 c 0,0.0107 -0.001,0.0225 -0.001,0.0308 l 0,0.0202 c 0,0.0379 -0.001,0.0747 -0.001,0.11259 l 0,0.009 c -0.22755,14.29689 -5.87378,27.27823 -14.97244,36.98015 -4.1683,4.448 -9.06312,8.20622 -14.49482,11.08741 l 16.7123,-8.53571 9.31437,-4.75377 c 42.82903,-21.38193 72.24296,-65.63082 72.24296,-116.75141 l -2.55289,-25.70785 0,0 z"
       id="path39" /><path
       style="fill:url(#linearGradient-3)"
       inkscape:connector-curvature="0"
       d="m 146.29926,263.59467 c -2.98548,0 -5.98519,-0.0676 -8.99674,-0.20623 -17.10933,-0.78459 -33.59171,-3.78311 -49.202964,-8.67555 l -9.620149,-4.82015 C 65.477926,217.69126 59.779556,182.52207 62.497185,147.07911 c 14.94163,-7.54963 27.322074,-19.53778 35.336297,-34.30993 l 6.571848,-11.73451 80.63052,40.416 c 2.91793,1.51466 5.77304,3.13837 8.55704,4.86163 0.007,0.005 0.0107,0.007 0.019,0.0119 0.0107,0.006 0.0213,0.013 0.0296,0.019 0.0107,0.006 0.0237,0.013 0.0332,0.0202 0.002,10e-4 0.009,0.006 0.0119,0.007 30.09422,18.67378 52.00592,49.26104 59.18815,85.16622 -30.68089,20.29393 -67.37423,32.05808 -106.57541,32.05808"
       id="path41" /></g></svg>