<?xml version="1.0" encoding="UTF-8" standalone="no"?>
<svg
   xmlns:dc="http://purl.org/dc/elements/1.1/"
   xmlns:cc="http://creativecommons.org/ns#"
   xmlns:rdf="http://www.w3.org/1999/02/22-rdf-syntax-ns#"
   xmlns:svg="http://www.w3.org/2000/svg"
   xmlns="http://www.w3.org/2000/svg"
   xmlns:xlink="http://www.w3.org/1999/xlink"
   xmlns:sodipodi="http://sodipodi.sourceforge.net/DTD/sodipodi-0.dtd"
   xmlns:inkscape="http://www.inkscape.org/namespaces/inkscape"
   viewBox="0 0 512 512"
   height="512"
   width="512"
   xml:space="preserve"
   version="1.1"
   id="svg3355"
   inkscape:version="0.91 r13725"
   sodipodi:docname="sharepoint.svg"><sodipodi:namedview
     pagecolor="#ffffff"
     bordercolor="#666666"
     borderopacity="1"
     objecttolerance="10"
     gridtolerance="10"
     guidetolerance="10"
     inkscape:pageopacity="0"
     inkscape:pageshadow="2"
     inkscape:window-width="1366"
     inkscape:window-height="701"
     id="namedview114"
     showgrid="false"
     inkscape:zoom="0.40138874"
     inkscape:cx="230.32624"
     inkscape:cy="275.81856"
     inkscape:window-x="1920"
     inkscape:window-y="336"
     inkscape:window-maximized="1"
     inkscape:current-layer="svg3355" /><metadata
     id="metadata3361"><rdf:RDF><cc:Work
         rdf:about=""><dc:format>image/svg+xml</dc:format><dc:type
           rdf:resource="http://purl.org/dc/dcmitype/StillImage" /><dc:title></dc:title></cc:Work></rdf:RDF></metadata><defs
     id="defs3359"><clipPath
       id="clipPath3369"
       clipPathUnits="userSpaceOnUse"><path
         id="path3371"
         d="M 0,600 600,600 600,0 0,0 0,600 Z"
         inkscape:connector-curvature="0" /></clipPath><linearGradient
       id="linearGradient3413"
       spreadMethod="pad"
       gradientTransform="matrix(-38.064877,-77.652351,-77.652351,38.064877,258.70169,355.28543)"
       gradientUnits="userSpaceOnUse"
       y2="0"
       x2="1"
       y1="0"
       x1="0"><stop
         id="stop3415"
         offset="0"
         style="stop-opacity:1;stop-color:#687e67" /><stop
         id="stop3417"
         offset="0.5288042"
         style="stop-opacity:1;stop-color:#687e67" /><stop
         id="stop3419"
         offset="1"
         style="stop-opacity:1;stop-color:#83a178" /></linearGradient><linearGradient
       id="linearGradient3435"
       spreadMethod="pad"
       gradientTransform="matrix(106.80725,78.914902,78.914902,-106.80725,235.15767,314.64658)"
       gradientUnits="userSpaceOnUse"
       y2="0"
       x2="1"
       y1="0"
       x1="0"><stop
         id="stop3437"
         offset="0"
         style="stop-opacity:1;stop-color:#687e67" /><stop
         id="stop3439"
         offset="0.137556"
         style="stop-opacity:1;stop-color:#687e67" /><stop
         id="stop3441"
         offset="0.69737407"
         style="stop-opacity:1;stop-color:#9bb48f" /><stop
         id="stop3443"
         offset="0.908084"
         style="stop-opacity:1;stop-color:#9bb48f" /><stop
         id="stop3445"
         offset="1"
         style="stop-opacity:1;stop-color:#9bb48f" /></linearGradient><clipPath
       id="clipPath3453"
       clipPathUnits="userSpaceOnUse"><path
         id="path3455"
         d="m 239.032,373.393 -42.134,-24.315 c -1.575,-0.909 -2.545,-2.588 -2.545,-4.407 l 0,-48.666 c 0,-1.818 0.97,-3.497 2.544,-4.408 l 42.133,-24.334 c 1.576,-0.909 3.516,-0.909 5.091,0 l 42.124,24.334 c 1.574,0.911 2.543,2.59 2.543,4.408 l 0,48.668 c 0,1.817 -0.969,3.496 -2.545,4.405 l -42.123,24.315 c -0.787,0.454 -1.666,0.682 -2.544,0.682 -0.879,0 -1.757,-0.228 -2.544,-0.682"
         inkscape:connector-curvature="0" /></clipPath><linearGradient
       id="linearGradient3469"
       spreadMethod="pad"
       gradientTransform="matrix(97.416992,0,0,-97.416992,192.8623,382.16568)"
       gradientUnits="userSpaceOnUse"
       y2="0"
       x2="1"
       y1="0"
       x1="0"><stop
         id="stop3471"
         offset="0"
         style="stop-opacity:1;stop-color:#9bb48f" /><stop
         id="stop3473"
         offset="0.0919165"
         style="stop-opacity:1;stop-color:#9bb48f" /><stop
         id="stop3475"
         offset="0.30262629"
         style="stop-opacity:1;stop-color:#9bb48f" /><stop
         id="stop3477"
         offset="0.862444"
         style="stop-opacity:1;stop-color:#687e67" /><stop
         id="stop3479"
         offset="1"
         style="stop-opacity:1;stop-color:#687e67" /></linearGradient><linearGradient
       id="linearGradient3495"
       spreadMethod="pad"
       gradientTransform="matrix(97.416992,0,0,-97.416992,192.8623,320.34848)"
       gradientUnits="userSpaceOnUse"
       y2="0"
       x2="1"
       y1="0"
       x1="0"><stop
         id="stop3497"
         offset="0"
         style="stop-opacity:1;stop-color:#9bb48f" /><stop
         id="stop3499"
         offset="0.0919165"
         style="stop-opacity:1;stop-color:#9bb48f" /><stop
         id="stop3501"
         offset="0.30262629"
         style="stop-opacity:1;stop-color:#9bb48f" /><stop
         id="stop3503"
         offset="0.862444"
         style="stop-opacity:1;stop-color:#687e67" /><stop
         id="stop3505"
         offset="1"
         style="stop-opacity:1;stop-color:#687e67" /></linearGradient><clipPath
       id="clipPath3513"
       clipPathUnits="userSpaceOnUse"><path
         id="path3515"
         d="m 239.032,373.393 -42.134,-24.315 c -1.575,-0.909 -2.545,-2.588 -2.545,-4.407 l 0,-48.666 c 0,-1.818 0.97,-3.497 2.544,-4.408 l 42.133,-24.334 c 1.576,-0.909 3.516,-0.909 5.091,0 l 42.124,24.334 c 1.574,0.911 2.543,2.59 2.543,4.408 l 0,48.668 c 0,1.817 -0.969,3.496 -2.545,4.405 l -42.123,24.315 c -0.787,0.454 -1.666,0.682 -2.544,0.682 -0.879,0 -1.757,-0.228 -2.544,-0.682"
         inkscape:connector-curvature="0" /></clipPath><linearGradient
       id="linearGradient3529"
       spreadMethod="pad"
       gradientTransform="matrix(97.416992,0,0,-97.416992,192.8623,292.53787)"
       gradientUnits="userSpaceOnUse"
       y2="0"
       x2="1"
       y1="0"
       x1="0"><stop
         id="stop3531"
         offset="0"
         style="stop-opacity:1;stop-color:#9bb48f" /><stop
         id="stop3533"
         offset="0.0919165"
         style="stop-opacity:1;stop-color:#9bb48f" /><stop
         id="stop3535"
         offset="0.30262629"
         style="stop-opacity:1;stop-color:#9bb48f" /><stop
         id="stop3537"
         offset="0.862444"
         style="stop-opacity:1;stop-color:#687e67" /><stop
         id="stop3539"
         offset="1"
         style="stop-opacity:1;stop-color:#687e67" /></linearGradient><clipPath
       id="clipPath3547"
       clipPathUnits="userSpaceOnUse"><path
         id="path3549"
         d="m 239.032,373.393 -42.134,-24.315 c -1.575,-0.909 -2.545,-2.588 -2.545,-4.407 l 0,-48.666 c 0,-1.818 0.97,-3.497 2.544,-4.408 l 42.133,-24.334 c 1.576,-0.909 3.516,-0.909 5.091,0 l 42.124,24.334 c 1.574,0.911 2.543,2.59 2.543,4.408 l 0,48.668 c 0,1.817 -0.969,3.496 -2.545,4.405 l -42.123,24.315 c -0.787,0.454 -1.666,0.682 -2.544,0.682 -0.879,0 -1.757,-0.228 -2.544,-0.682"
         inkscape:connector-curvature="0" /></clipPath><linearGradient
       id="linearGradient3563"
       spreadMethod="pad"
       gradientTransform="matrix(97.416992,0,0,-97.416992,192.8623,279.9682)"
       gradientUnits="userSpaceOnUse"
       y2="0"
       x2="1"
       y1="0"
       x1="0"><stop
         id="stop3565"
         offset="0"
         style="stop-opacity:1;stop-color:#9bb48f" /><stop
         id="stop3567"
         offset="0.0919165"
         style="stop-opacity:1;stop-color:#9bb48f" /><stop
         id="stop3569"
         offset="0.30262629"
         style="stop-opacity:1;stop-color:#9bb48f" /><stop
         id="stop3571"
         offset="0.862444"
         style="stop-opacity:1;stop-color:#687e67" /><stop
         id="stop3573"
         offset="1"
         style="stop-opacity:1;stop-color:#687e67" /></linearGradient><clipPath
       id="clipPath3581"
       clipPathUnits="userSpaceOnUse"><path
         id="path3583"
         d="m 239.032,373.393 -42.134,-24.315 c -1.575,-0.909 -2.545,-2.588 -2.545,-4.407 l 0,-48.666 c 0,-1.818 0.97,-3.497 2.544,-4.408 l 42.133,-24.334 c 1.576,-0.909 3.516,-0.909 5.091,0 l 42.124,24.334 c 1.574,0.911 2.543,2.59 2.543,4.408 l 0,48.668 c 0,1.817 -0.969,3.496 -2.545,4.405 l -42.123,24.315 c -0.787,0.454 -1.666,0.682 -2.544,0.682 -0.879,0 -1.757,-0.228 -2.544,-0.682"
         inkscape:connector-curvature="0" /></clipPath><linearGradient
       id="linearGradient3597"
       spreadMethod="pad"
       gradientTransform="matrix(-60.080605,-122.56444,-122.56444,60.080605,304.47177,357.58765)"
       gradientUnits="userSpaceOnUse"
       y2="0"
       x2="1"
       y1="0"
       x1="0"><stop
         id="stop3599"
         offset="0"
         style="stop-opacity:1;stop-color:#687e67" /><stop
         id="stop3601"
         offset="0.5288042"
         style="stop-opacity:1;stop-color:#687e67" /><stop
         id="stop3603"
         offset="1"
         style="stop-opacity:1;stop-color:#83a178" /></linearGradient><linearGradient
       inkscape:collect="always"
       xlink:href="#linearGradient3368"
       id="linearGradient3374"
       x1="234"
       y1="308.80164"
       x2="240"
       y2="-91.198364"
       gradientUnits="userSpaceOnUse" /><linearGradient
       inkscape:collect="always"
       id="linearGradient3368"><stop
         style="stop-color:#5653af;stop-opacity:1;"
         offset="0"
         id="stop3370" /><stop
         style="stop-color:#5653af;stop-opacity:0;"
         offset="1"
         id="stop3372" /></linearGradient></defs><g
     transform="translate(-0.50000138,10.099179)"
     id="g4146"><path
       sodipodi:nodetypes="cccccc"
       inkscape:connector-curvature="0"
       id="path3338"
       d="m 9.52536,432.72084 0,-260.4687 C 10.66481,95.594856 77.22068,12.44027 169.28677,10.52536 l 265.05871,0 0,422.19548 z"
       style="fill:#ffffff;fill-opacity:1;fill-rule:evenodd;stroke:#6365bc;stroke-width:17.05071449;stroke-linecap:butt;stroke-linejoin:miter;stroke-miterlimit:4;stroke-dasharray:none;stroke-opacity:1" /><path
       sodipodi:nodetypes="cccccc"
       inkscape:connector-curvature="0"
       id="path4183"
       d="M 34.43558,315.86996 35.73727,171.85679 C 35.62738,96.842531 120.388,34.07186 184.47349,34.94627 l 224.96193,0.73444 0,280.18925 z"
       style="fill:url(#linearGradient3374);fill-opacity:1;fill-rule:evenodd;stroke:none;stroke-width:1px;stroke-linecap:butt;stroke-linejoin:miter;stroke-opacity:1" /><path
       sodipodi:nodetypes="ccccc"
       inkscape:connector-curvature="0"
       id="path4181"
       d="m 34.43542,407.65072 375,0 -1.30169,-235.18609 c -127.39258,5.96 -282.13389,58.33835 -373.69831,129.40412 z"
       style="fill:#5653af;fill-opacity:1;fill-rule:evenodd;stroke:none;stroke-width:1px;stroke-linecap:butt;stroke-linejoin:miter;stroke-opacity:1" /><g
       transform="translate(751,-1)"
       id="g3388"><path
         style="fill:#ffffff;fill-rule:evenodd;stroke:none;stroke-width:1px;stroke-linecap:butt;stroke-linejoin:miter;stroke-opacity:1"
         d="m -575.5,184.30164 c 0,0 21,-23 18,-25 -3,-2 -83,-33.5 -83,-33.5 l 263,-67.500005 138.5,233.500005 -101.5,-42.5 -8.5,29.5 z"
         id="path3376"
         inkscape:connector-curvature="0" /><path
         style="fill:#ffffff;fill-rule:evenodd;stroke:none;stroke-width:1px;stroke-linecap:butt;stroke-linejoin:miter;stroke-opacity:1"
         d="m -589.5,203.30164 236,95 -55,192.5 -288,-131.5 z"
         id="path3378"
         inkscape:connector-curvature="0" /><path
         style="fill:#5049b3;fill-rule:evenodd;stroke:none;stroke-width:1px;stroke-linecap:butt;stroke-linejoin:miter;stroke-opacity:1"
         d="m -576,241.30164 82,33.5 -38,64.5 -86,-39 z"
         id="path3380"
         inkscape:connector-curvature="0" /><path
         style="fill:#5049b3;fill-rule:evenodd;stroke:none;stroke-width:1px;stroke-linecap:butt;stroke-linejoin:miter;stroke-opacity:1"
         d="m -475,281.30164 89,36 -10,23.5 -90.5,-37 z"
         id="path3382"
         inkscape:connector-curvature="0" /><path
         style="fill:#5049b3;fill-rule:evenodd;stroke:none;stroke-width:1px;stroke-linecap:butt;stroke-linejoin:miter;stroke-opacity:1"
         d="m -497,324.80164 93,39 -10,26 -94.5,-42.5 z"
         id="path3384"
         inkscape:connector-curvature="0" /><path
         style="fill:#5049b3;fill-opacity:1;fill-rule:evenodd;stroke:none;stroke-width:1px;stroke-linecap:butt;stroke-linejoin:miter;stroke-opacity:1"
         d="m -628.5,316.30164 207.5,92.5 -11,28 -214.5,-94 z"
         id="path3386"
         inkscape:connector-curvature="0" /></g></g></svg>