<?xml version="1.0" encoding="UTF-8" standalone="no"?>
<!-- Created with Inkscape (http://www.inkscape.org/) -->

<svg
   xmlns:dc="http://purl.org/dc/elements/1.1/"
   xmlns:cc="http://creativecommons.org/ns#"
   xmlns:rdf="http://www.w3.org/1999/02/22-rdf-syntax-ns#"
   xmlns:svg="http://www.w3.org/2000/svg"
   xmlns="http://www.w3.org/2000/svg"
   xmlns:sodipodi="http://sodipodi.sourceforge.net/DTD/sodipodi-0.dtd"
   xmlns:inkscape="http://www.inkscape.org/namespaces/inkscape"
   width="100"
   height="100"
   viewBox="0 0 100 100"
   id="svg10626"
   version="1.1"
   inkscape:version="0.91 r13725"
   sodipodi:docname="twitter.svg">
  <defs
     id="defs10628" />
  <sodipodi:namedview
     id="base"
     pagecolor="#ffffff"
     bordercolor="#666666"
     borderopacity="1.0"
     inkscape:pageopacity="0.0"
     inkscape:pageshadow="2"
     inkscape:zoom="8.97"
     inkscape:cx="50"
     inkscape:cy="50"
     inkscape:document-units="px"
     inkscape:current-layer="layer1"
     showgrid="false"
     units="px"
     inkscape:window-width="1920"
     inkscape:window-height="1013"
     inkscape:window-x="0"
     inkscape:window-y="24"
     inkscape:window-maximized="1" />
  <metadata
     id="metadata10631">
    <rdf:RDF>
      <cc:Work
         rdf:about="">
        <dc:format>image/svg+xml</dc:format>
        <dc:type
           rdf:resource="http://purl.org/dc/dcmitype/StillImage" />
        <dc:title></dc:title>
      </cc:Work>
    </rdf:RDF>
  </metadata>
  <g
     inkscape:label="Layer 1"
     inkscape:groupmode="layer"
     id="layer1"
     transform="translate(0,-952.36214)">
    <path
       inkscape:connector-curvature="0"
       style="display:inline;opacity:1;fill:#000000;fill-opacity:1;fill-rule:nonzero;stroke:none;stroke-width:40;stroke-linecap:round;stroke-linejoin:round;stroke-miterlimit:4;stroke-dasharray:none;stroke-dashoffset:0;stroke-opacity:1"
       d="M 50.000007,952.36216 A 49.998776,50.000021 0 0 0 0,1002.3608 49.998776,50.000021 0 0 0 50.000007,1052.3621 49.998776,50.000021 0 0 0 100,1002.3608 49.998776,50.000021 0 0 0 50.000007,952.36216 Z m 12.128738,24.38485 c 3.721458,0 7.077368,1.56995 9.440645,4.08269 2.949537,-0.57952 5.713638,-1.65108 8.219499,-3.13835 -0.973372,3.02207 -3.019067,5.55623 -5.696986,7.15893 2.619052,-0.31239 5.116608,-1.00615 7.427814,-2.03616 -1.72492,2.58973 -3.916166,4.86771 -6.444679,6.68547 0.02504,0.55687 0.03881,1.12031 0.03881,1.68172 0,17.09329 -13.007412,36.79599 -36.805331,36.79599 -7.304848,0 -14.105658,-2.1341 -19.82821,-5.8058 1.011866,0.1206 2.042953,0.1811 3.086505,0.1811 6.062084,0 11.636131,-2.0687 16.06386,-5.5367 -5.659155,-0.1047 -10.436483,-3.8448 -12.082177,-8.9857 0.78775,0.1494 1.601199,0.2329 2.43196,0.2329 1.179367,0 2.323035,-0.1535 3.407333,-0.4501 -5.917221,-1.1863 -10.37204,-6.4123 -10.37204,-12.68276 0,-0.0543 -0.0013,-0.11353 0,-0.16559 1.743015,0.96662 3.736002,1.55133 5.854804,1.61703 -3.467948,-2.31577 -5.751323,-6.27627 -5.751323,-10.76297 0,-2.37237 0.635231,-4.59635 1.748949,-6.50694 6.376752,7.82795 15.910494,12.97769 26.658387,13.52098 -0.221785,-0.94849 -0.33116,-1.93564 -0.33116,-2.95205 0,-7.14205 5.791486,-12.93368 12.933351,-12.93368 z"
       id="circle8492" />
  </g>
</svg>
