<svg xmlns="http://www.w3.org/2000/svg" viewBox="0 0 100 100" id="twitter-icon" class="menu-icon">
  <path class="bg-target" d="M50 0A50 50 0 0 0 0 50a50 50 0 0 0 50 50 50 50 0 0 0 50-50A50 50 0 0 0 50 0zm12.13 24.385c3.72 0 7.076 1.57 9.44 4.083 2.95-.58 5.713-1.652 8.22-3.14-.974 3.023-3.02 5.557-5.698 7.16 2.62-.312 5.117-1.006 7.428-2.036-1.725 2.59-3.916 4.868-6.445 6.685.025.557.04 1.12.04 1.682 0 17.092-13.01 36.795-36.806 36.795-7.306 0-14.107-2.134-19.83-5.806 1.012.12 2.043.18 3.087.18 6.062 0 11.636-2.068 16.064-5.536-5.658-.105-10.436-3.845-12.082-8.986.788.15 1.602.233 2.432.233 1.18 0 2.323-.153 3.408-.45-5.917-1.185-10.372-6.41-10.372-12.682 0-.054-.002-.113 0-.165 1.743.966 3.736 1.55 5.855 1.617-3.467-2.316-5.75-6.277-5.75-10.763 0-2.373.634-4.597 1.748-6.507 6.377 7.828 15.91 12.977 26.66 13.52-.223-.948-.333-1.935-.333-2.95 0-7.143 5.792-12.935 12.934-12.935z"/>
</svg>
